<svg width="510" height="657" viewBox="0 0 510 657" fill="none" xmlns="http://www.w3.org/2000/svg">
<mask id="mask0_127_1169" style="mask-type:alpha" maskUnits="userSpaceOnUse" x="0" y="0" width="510" height="657">
<rect width="510" height="656.368" rx="15" fill="white" style="fill:white;fill-opacity:1;"/>
</mask>
<g mask="url(#mask0_127_1169)">
<path fill-rule="evenodd" clip-rule="evenodd" d="M18.3053 364.881C36.8125 368.321 49.8845 361.853 56.6269 360.374C58.5877 359.961 67.2565 363.814 80.9477 363.814C84.8766 363.614 88.7261 362.632 92.2703 360.925C95.8146 359.218 98.9823 356.82 101.588 353.873C102.035 353.357 101.209 352.703 100.762 353.219C95.4553 358.445 88.3263 361.405 80.8789 361.475C73.6375 361.161 66.4571 360.006 59.4821 358.035C54.7693 356.969 55.4917 358.276 43.5549 361.475C35.4014 363.696 26.8831 364.246 18.5117 363.092C7.91648 361.578 5.92128 359.205 5.47408 360.409C5.42834 360.541 5.43493 360.686 5.49246 360.814C5.55 360.942 5.65415 361.043 5.78368 361.097C9.82893 362.75 14.0215 364.017 18.3053 364.881ZM260.172 318.441C275.342 317.237 287.692 303.855 286.556 295.771C286.577 295.69 286.579 295.605 286.562 295.523C286.545 295.44 286.51 295.363 286.458 295.297C286.407 295.231 286.341 295.177 286.265 295.14C286.19 295.103 286.107 295.084 286.023 295.084C285.939 295.084 285.857 295.103 285.781 295.14C285.706 295.177 285.64 295.231 285.589 295.297C285.537 295.363 285.501 295.44 285.484 295.523C285.467 295.605 285.469 295.69 285.49 295.771C284.94 298.937 283.426 301.856 281.156 304.13C276.42 309.374 270.532 313.449 263.956 316.033C259.931 317.649 259.346 317.202 259.484 317.993C259.49 318.073 259.514 318.149 259.554 318.218C259.595 318.286 259.65 318.344 259.717 318.387C259.784 318.431 259.859 318.458 259.938 318.467C260.017 318.476 260.097 318.467 260.172 318.441ZM-32.6411 375.854C-32.5088 375.809 -32.4001 375.712 -32.3388 375.586C-32.2775 375.461 -32.2687 375.316 -32.3143 375.183C-32.3599 375.051 -32.4562 374.942 -32.582 374.881C-32.7078 374.82 -32.8528 374.811 -32.9851 374.857C-41.4639 376.693 -50.2375 376.693 -58.7163 374.857C-62.3627 373.928 -62.5691 373.171 -62.9475 373.859C-63.0142 373.979 -63.0335 374.12 -63.0017 374.254C-62.9699 374.387 -62.8892 374.504 -62.7755 374.581C-54.7603 380.361 -41.3787 380.12 -32.6411 375.854ZM388.105 124.39C389.241 124.769 388.105 123.221 393.781 113.107C405.305 92.2262 426.014 73.9254 447.032 62.195C455.529 57.4478 456.252 57.9294 455.908 57.0694C455.841 56.9435 455.731 56.8461 455.598 56.7954C455.465 56.7447 455.319 56.7443 455.185 56.7942C420.132 70.5542 394.813 99.1062 387.761 123.702C387.735 123.77 387.722 123.842 387.725 123.915C387.729 123.987 387.747 124.058 387.779 124.123C387.812 124.188 387.858 124.245 387.914 124.291C387.97 124.337 388.035 124.371 388.105 124.39ZM490.686 151.807C475.447 140.386 451.298 134.917 432.206 132.577C419.456 130.879 406.554 130.625 393.747 131.821C393.675 131.825 393.604 131.844 393.539 131.875C393.474 131.907 393.415 131.951 393.367 132.006C393.32 132.06 393.283 132.123 393.259 132.192C393.236 132.261 393.226 132.333 393.231 132.405C393.231 133.334 393.437 132.405 405.752 132.887C431.002 133.781 470.562 139.767 489.929 152.667C490.652 153.045 491.271 152.185 490.686 151.807ZM371.8 331.788C369.568 332.91 367.178 333.687 364.713 334.093C364.65 334.063 364.582 334.047 364.512 334.044C364.442 334.041 364.373 334.052 364.307 334.076C364.242 334.099 364.182 334.136 364.13 334.183C364.079 334.23 364.037 334.287 364.008 334.351C363.979 334.414 363.962 334.482 363.959 334.552C363.956 334.622 363.967 334.691 363.991 334.757C364.015 334.822 364.052 334.882 364.099 334.934C364.146 334.985 364.203 335.026 364.266 335.056C364.95 335.554 365.741 335.886 366.576 336.025C367.411 336.163 368.267 336.105 369.076 335.855C369.884 335.604 370.623 335.168 371.233 334.581C371.844 333.995 372.309 333.274 372.591 332.476C372.682 332.371 372.728 332.234 372.718 332.095C372.709 331.957 372.644 331.827 372.539 331.736C372.434 331.645 372.298 331.599 372.159 331.609C372.02 331.618 371.891 331.683 371.8 331.788ZM-50.9419 483.32C-57.4435 483.905 -56.3083 486.76 -49.8067 485.865C-43.3051 484.971 -46.7795 482.941 -50.9419 483.32ZM50.9509 470.523C50.2676 470.576 49.5892 470.679 48.9213 470.833C45.2061 471.865 46.0317 473.137 49.7125 473.206C56.8677 473.241 57.2805 470.041 50.9509 470.523ZM-54.4507 557.899C-57.2715 557.899 -60.8491 559.447 -56.1707 560.41C-55.0302 560.579 -53.8712 560.579 -52.7307 560.41C-47.8803 559.241 -51.9051 557.83 -54.4507 557.899ZM45.6877 539.426C40.3557 539.667 42.4885 541.697 45.6877 542.006C51.2605 542.591 52.6365 539.151 45.6877 539.426ZM145.998 589.891C139.118 590.235 144.966 592.987 149.438 592.471C153.91 591.955 152.568 589.547 145.998 589.891ZM250.918 563.265C244.038 562.99 246.48 565.983 251.537 565.949C255.493 565.914 256.835 563.575 250.918 563.265ZM365.367 603.341C360.861 603.341 358.177 605.233 363.234 605.921C364.675 606.076 366.128 606.076 367.569 605.921C372.797 604.889 369.392 603.273 365.367 603.341ZM448.305 517.066C455.805 517.685 455.977 514.865 448.305 514.417C440.015 513.901 442.767 516.619 448.305 517.066ZM500.112 500.967C497.979 501.311 496.672 502.515 499.458 503.306C500.824 503.65 502.254 503.65 503.621 503.306C507.749 501.655 503.311 500.451 500.112 500.967ZM22.5365 148.401C27.2702 148.392 31.9554 147.448 36.3227 145.622C40.69 143.796 44.6533 141.124 47.9845 137.761C51.3157 134.398 53.9492 130.409 55.7334 126.025C57.5177 121.64 58.4176 116.946 58.3813 112.213C58.0926 102.894 54.1878 94.053 47.4939 87.5632C40.8 81.0735 31.8427 77.4442 22.5193 77.4442C13.1959 77.4442 4.2386 81.0735 -2.45532 87.5632C-9.14924 94.053 -13.0541 102.894 -13.3427 112.213C-13.379 116.949 -12.478 121.646 -10.6916 126.033C-8.90518 130.419 -6.26864 134.41 -2.93378 137.773C0.401077 141.137 4.36838 143.808 8.73967 145.632C13.111 147.456 17.7999 148.397 22.5365 148.401ZM-1.37151 88.2358C1.68916 84.9588 5.39082 82.3461 9.50361 80.5597C13.6164 78.7734 18.0525 77.8516 22.5365 77.8516C27.0205 77.8516 31.4566 78.7734 35.5694 80.5597C39.6821 82.3461 43.3838 84.9588 46.4445 88.2358C52.6397 94.642 56.0799 103.219 56.0285 112.131C55.9771 121.043 52.438 129.58 46.1693 135.914C43.074 139.032 39.3923 141.507 35.3363 143.196C31.2802 144.885 26.9301 145.754 22.5365 145.754C18.1429 145.754 13.7927 144.885 9.73671 143.196C5.68067 141.507 1.99893 139.032 -1.09632 135.914C-7.36504 129.58 -10.9041 121.043 -10.9555 112.131C-11.007 103.219 -7.5667 94.642 -1.37151 88.2358ZM388.621 126.764L388.587 126.695V126.729L388.621 126.764ZM300.282 183.249C300.282 183.249 309.123 177.091 309.845 176.541C313.595 173.651 318.204 170.761 321.885 168.388C331.689 162.093 331.311 161.508 344.417 154.249C348.201 152.117 380.159 134.813 382.945 133.162C383.055 133.085 383.133 132.97 383.164 132.839C383.195 132.708 383.177 132.571 383.114 132.452C383.05 132.334 382.946 132.242 382.819 132.196C382.693 132.149 382.555 132.15 382.429 132.199C369.804 138.701 345.243 149.124 326.977 161.921C320.671 166.016 314.575 170.425 308.71 175.13C305.425 177.581 302.267 180.199 299.25 182.973C299.248 183.096 299.287 183.216 299.361 183.314C299.435 183.412 299.54 183.482 299.659 183.514C299.777 183.546 299.903 183.537 300.016 183.489C300.129 183.441 300.223 183.356 300.282 183.249ZM253.326 381.152C255.542 382.331 258.006 382.968 260.516 383.009C261.616 383.009 262.339 382.218 262.58 380.601C262.821 378.971 262.821 377.313 262.58 375.682C261.41 367.908 259.14 369.8 259.656 370.625C257.454 371.21 250.092 379.466 253.326 381.152ZM259.862 371.829C259.9 371.845 259.941 371.854 259.983 371.854C260.024 371.854 260.065 371.845 260.103 371.829C260.384 374.678 260.384 377.547 260.103 380.395C258.451 380.134 256.835 379.684 255.287 379.053C256.462 376.441 258.003 374.008 259.862 371.829Z" fill="black" style="fill:black;fill-opacity:1;"/>
<path fill-rule="evenodd" clip-rule="evenodd" d="M441.907 167.08L449.923 159.065L453.879 169.969C454.154 170.726 451.333 169.419 492.785 186.585C493.439 186.86 493.026 186.86 503.105 183.145C504.481 194.875 504.343 194.669 504.79 195.15C507.543 198.074 529.215 221.088 532.311 223.737C538.193 228.931 551.059 192.261 538.709 172.756C513.666 133.368 481.88 121.569 435.853 118.232C426.771 117.613 406.544 121.225 397.566 122.945C417.724 111.489 416.83 112.453 416.761 111.593L416.107 102.477L424.639 103.577C425.189 103.577 421.646 105.985 479.3 67.4918C480.126 66.9414 479.919 67.4918 479.919 56.6558C487.969 55.1422 488.967 55.0046 489.311 54.867C492.338 53.5942 516.108 43.8246 518.757 41.8982C519.082 41.7041 519.321 41.3925 519.423 41.0277C519.526 40.6628 519.484 40.2726 519.307 39.9374C509.847 23.2878 495.709 22.2558 477.133 25.5582C442.182 31.7158 419.41 54.2134 397.222 81.6302C390.463 90.6672 386.279 101.366 385.113 112.59C371.663 89.955 348.615 81.871 324.844 72.239C289.859 58.1006 211.909 57.2406 179.711 79.807C164.598 90.072 152.45 104.13 144.485 120.571C144.21 121.121 144.141 122.325 145.758 122.773C151.503 124.355 202.999 122.773 208.985 122.773C209.811 122.773 209.845 122.188 216.863 116.925C217.344 118.748 217.929 121.465 218.239 123.117C218.303 123.42 218.474 123.69 218.72 123.879C218.966 124.068 219.27 124.164 219.58 124.149C273.244 121.981 269.976 122.291 270.492 121.741C270.492 121.741 276.168 115.308 278.748 112.762C279.078 113.721 279.353 114.697 279.574 115.686C281.053 122.188 280.296 123.117 281.5 123.495C292.302 126.935 315.281 133.815 326.702 136.498C292.783 147.3 272.556 159.168 251.744 188.683C244.174 200.215 238.268 212.757 234.2 225.938C231.677 225.689 229.141 226.268 226.976 227.589C225.497 228.587 226.013 231.029 226.563 232.715C222.332 231.889 220.027 233.85 221.438 238.15C222.573 241.59 226.185 246.372 226.185 248.814C225.944 248.47 225.359 247.507 225.222 247.335C221.744 244.673 217.413 243.375 213.044 243.689C208.779 243.689 205.304 248.023 202.483 250.053C205.201 241.521 200.282 236.568 188.035 248.092C188.307 247.316 188.389 246.487 188.275 245.673C188.162 244.86 187.855 244.085 187.382 243.413C183.942 239.973 175.686 247.61 172.349 249.605C172.349 248.195 173.415 245.237 170.319 243.689C165.331 241.177 161.788 246.269 158.727 250.569C157.557 245.787 151.503 244.721 146.927 246.544C144.244 247.89 142.153 250.179 141.055 252.973C139.956 255.766 139.928 258.867 140.976 261.68C135.851 258.997 129.762 257.242 129.521 263.021C129.51 264.494 129.683 265.961 130.037 267.39C127.629 265.877 123.914 263.95 121.368 265.223C116.552 267.665 117.928 272.585 120.68 277.194C90.5802 277.194 -90.7766 280.634 -106.36 281.494C-106.647 281.561 -106.903 281.724 -107.086 281.955C-107.269 282.186 -107.369 282.472 -107.369 282.767C-107.369 283.062 -107.269 283.348 -107.086 283.579C-106.903 283.81 -106.647 283.973 -106.36 284.04C44.1745 282.182 315.591 280.6 317.001 281.391C341.081 298.109 296.705 342.451 265.951 349.262C256.301 342.397 246.288 336.059 235.955 330.273C235.095 329.826 234.923 331.271 234.785 332.234C234.647 333.197 234.51 334.229 234.372 335.674C225.515 326.434 215.017 318.921 203.412 313.521C180.502 303.82 165.572 311.629 152.672 332.406C147.133 341.916 142.525 351.939 138.912 362.334C135.796 371.503 133.156 380.826 131 390.267C125.463 391.387 119.777 391.573 114.179 390.817C101.313 389.201 82.6682 384.316 78.8498 385.589C71.4882 388.065 65.3994 394.12 57.7626 396.665C45.544 400.889 32.5932 402.579 19.7 401.632C6.80685 400.686 -5.75844 397.123 -17.2294 391.161C-20.6694 389.51 -42.5478 396.39 -47.5014 397.422C-59.7478 399.899 -90.9486 392.193 -108.837 378.846C-108.951 378.79 -109.082 378.775 -109.206 378.805C-109.33 378.834 -109.44 378.906 -109.517 379.007C-109.594 379.109 -109.634 379.234 -109.629 379.362C-109.624 379.489 -109.575 379.611 -109.49 379.706C-91.327 393.466 -59.8854 401.378 -47.1918 398.901C-44.0958 398.282 -20.3598 391.505 -18.0206 392.675C-6.35152 398.82 6.44743 402.523 19.5951 403.559C32.7428 404.594 45.9636 402.939 58.4506 398.695C66.4314 396.046 72.2106 390.129 79.5722 387.721C82.4962 386.758 101.795 391.609 113.972 393.157C119.47 393.953 125.063 393.826 130.519 392.778C129.005 399.349 123.983 422.293 123.639 426.8C123.598 427.035 123.607 427.276 123.666 427.508C123.726 427.739 123.833 427.955 123.983 428.141C124.567 428.692 125.668 428.726 132.961 428.864C131.103 440.216 131.275 439.356 130.45 440.388C126.791 444.156 122.871 447.662 118.719 450.88C116.139 453.013 112.837 456.693 114.316 459.721C115.211 461.475 117.447 461.578 119.407 461.406C119.407 462.335 119.407 464.124 120.302 464.365C121.815 464.709 136.676 464.571 139.222 464.537L141.871 467.977C138.052 474.169 112.527 516.446 113.147 523.636C113.353 525.769 117.515 526.904 119.786 527.523C119.339 528.693 118.891 529.862 118.479 530.757C118.066 531.651 118.135 531.685 117.963 531.961C117.791 532.236 104.822 535.401 98.9394 539.666C95.0866 542.418 95.4993 545.377 97.5634 546.546C103.205 549.814 134.234 549.126 135.954 547.303C138.224 544.895 139.979 534.678 140.563 531.376C142.982 531.836 145.473 531.754 147.856 531.135C159.202 521.922 169.744 511.761 179.367 500.76C183.357 503.202 187.588 505.541 192.06 507.64C188.62 511.527 151.778 552.601 151.399 555.593C150.883 559.343 161.719 563.505 164.919 561.545C165.882 560.925 168.359 558.105 206.99 513.763C214.175 516.196 221.567 517.969 229.075 519.061C240.959 520.77 252.947 521.666 264.954 521.744C278.507 529.174 294.882 538.084 305.339 543.725C264.403 594.362 266.364 591.713 266.364 592.677C266.364 594.5 269.082 596.357 270.63 597.321C272.178 598.284 275.136 599.729 276.753 598.869C279.127 597.561 315.797 552.532 317.62 550.296C337.228 560.616 353.878 569.353 358.281 571.521C359.691 572.243 360.861 570.833 361.721 569.491C362.772 567.761 363.67 565.942 364.404 564.056C364.502 563.765 364.498 563.449 364.392 563.161C364.285 562.873 364.083 562.63 363.819 562.473L325.257 540.973L348.89 512.146L464.68 576.44C464.966 576.563 465.281 576.599 465.587 576.544C465.893 576.489 466.176 576.345 466.4 576.13C468.534 573.308 470.292 570.221 471.629 566.945C472.042 565.673 471.354 565.225 470.494 564.675C470.322 564.675 401.9 526.078 357.765 501.31L382.223 471.382C388.136 471.629 394.032 470.588 399.502 468.331C404.973 466.074 409.888 462.655 413.906 458.31C414.25 462.301 414.491 465.465 414.663 467.667C414.693 467.785 414.762 467.89 414.858 467.965C414.955 468.04 415.074 468.081 415.196 468.081C415.318 468.081 415.437 468.04 415.533 467.965C415.63 467.89 415.699 467.785 415.729 467.667C415.523 464.227 415.282 460.787 415.041 457.141C424.019 446.821 427.631 431.513 427.769 417.787C431.379 417.113 434.941 416.205 438.433 415.069C438.57 415.069 438.701 415.015 438.798 414.918C438.895 414.822 438.949 414.69 438.949 414.553C438.949 414.417 438.895 414.285 438.798 414.189C438.701 414.092 438.57 414.037 438.433 414.037C435.087 414.081 431.75 414.403 428.457 415.001C442.699 397.56 467.467 366.841 471.663 361.474C481.983 421.743 482.671 467.461 483.978 471.554C483.978 472.277 485.011 472.827 485.011 471.107C485.026 471.016 485.026 470.923 485.011 470.832C483.325 453.219 482.155 412.868 473.418 359.273C503.931 320.848 502.589 321.914 501.901 320.813C500.525 318.715 495.021 316.892 491.168 316.754C490.79 316.754 491.478 316.032 482.499 327.074C478.819 326.111 473.383 325.01 466.882 323.841C464.061 310.081 460.896 296.561 457.25 282.561C533.239 284.349 529.146 284.659 529.73 283.696L533.48 284.04C533.561 284.061 533.646 284.063 533.728 284.046C533.811 284.028 533.888 283.993 533.954 283.941C534.02 283.89 534.074 283.824 534.111 283.749C534.148 283.673 534.167 283.591 534.167 283.507C534.167 283.423 534.148 283.34 534.111 283.265C534.074 283.189 534.02 283.123 533.954 283.072C533.888 283.02 533.811 282.985 533.728 282.968C533.646 282.951 533.561 282.953 533.48 282.973L529.696 282.629C529.868 277.641 529.146 272.619 524.433 270.899C527.357 269.454 532.138 267.459 530.178 263.778C528.217 260.097 523.298 264.019 521.337 263.778C520.993 261.508 524.777 254.181 517.897 252.461C515.381 252.443 512.867 252.558 510.363 252.805C511.636 250.5 514.147 246.406 513.803 243.895C513.494 242.278 512.118 241.005 508.368 241.934C507.611 242.141 504.928 243.207 503.036 243.689C503.419 243.128 503.742 242.528 503.999 241.9C504.653 238.782 504.087 235.532 502.417 232.818C498.426 226.867 492.613 231.442 487.763 233.678C488.667 232.106 489.164 230.332 489.207 228.518C489.035 225.285 485.389 224.528 482.327 225.422C479.799 226.375 477.349 227.525 475 228.862C476.003 227.455 476.439 225.722 476.223 224.007C476.006 222.292 475.152 220.722 473.831 219.609C471.732 218.233 466.434 219.609 464.027 220.537C467.467 214.414 466.228 209.151 463.407 206.33C460.587 203.509 454.085 205.986 451.195 205.711C451.923 204.705 452.556 203.634 453.087 202.512C453.74 199.438 453.173 196.231 451.505 193.568C451.141 192.992 450.631 192.523 450.026 192.209C449.422 191.895 448.745 191.747 448.065 191.779C444.625 191.779 438.743 196.32 437.745 195.219C436.747 194.118 437.745 190.197 434.305 188.339C430.865 186.481 426.84 187.72 426.84 193.671C420.958 179.911 415.247 168.421 410.122 158.927C443.696 168.215 441.288 167.768 441.907 167.08ZM134.44 545.48C130.587 546.374 102.311 546.546 98.561 544.035C97.2538 540.87 116.174 534.747 118.582 533.474C119.579 532.924 120.543 529.518 121.059 527.764C127.042 529.312 133.121 530.461 139.256 531.204C138.465 533.681 136.023 543.485 134.44 545.48ZM398.701 82.7998C420.889 56.1054 443.696 33.9862 477.58 28.1038C494.436 25.1798 507.474 25.5582 516.383 40.2126C511.808 42.6894 493.267 50.5326 488.451 52.3902L478.406 54.3166C478.111 54.3783 477.845 54.5374 477.652 54.7682C477.458 54.9991 477.348 55.2884 477.339 55.5894V65.7374L424.501 101.72C414.628 100.585 414.938 100.481 414.491 100.894C414.043 101.307 414.147 100.894 415.041 111.214C412.702 112.59 401.831 118.885 393.782 123.667C385.079 125.387 387.074 125.181 385.491 125.009C385.56 110.423 389.344 94.0486 398.701 82.7998ZM282.842 121.5C282.473 117.665 281.606 113.896 280.262 110.285C280.181 110.126 280.064 109.987 279.921 109.88C279.778 109.773 279.612 109.699 279.436 109.666C278.645 109.666 278.026 110.182 277.372 110.801C275.171 112.9 270.492 118.197 269.047 119.642L220.543 121.431C220.234 119.883 219.374 115.858 218.858 114.345C218.798 114.156 218.696 113.983 218.56 113.839C218.423 113.695 218.256 113.584 218.07 113.515C217.885 113.445 217.686 113.419 217.488 113.437C217.291 113.456 217.101 113.519 216.931 113.622C215.865 114.173 209.432 119.298 208.469 120.055C199.559 120.33 156.353 121.465 147.547 120.399C155.337 104.965 166.912 91.7572 181.19 82.0086C212.115 60.4398 289.24 60.4398 324.053 74.1998C348.408 83.8318 371.491 91.6062 384.872 114.826C384.501 118.173 384.318 121.538 384.322 124.905C381.054 124.665 383.324 125.421 377.82 121.706C346.86 100.825 276.547 78.947 240.977 89.4734C240.842 89.5136 240.728 89.6036 240.658 89.7251C240.588 89.8466 240.566 89.9904 240.599 90.127C241.149 92.0878 252.329 83.6254 297.427 93.2918C323.331 98.7958 358.075 110.767 379.059 124.665C363.063 124.424 351.057 128.827 329.97 135.329C319.478 132.989 293.024 124.733 282.842 121.5ZM253.808 190.025C276.856 157.035 299.56 146.44 338.329 134.675C350.335 130.994 363.544 126.006 376.169 125.937C380.193 125.763 384.224 125.971 388.209 126.557C388.209 126.557 388.828 126.557 388.725 126.763C389.255 132.105 388.365 137.493 386.145 142.381C383.09 149.899 378.94 156.924 373.83 163.227C360.448 180.427 354.807 186.894 336.231 198.797C334.27 198.384 326.943 196.32 325.085 195.769C324.916 195.723 324.739 195.715 324.567 195.746C324.395 195.777 324.232 195.846 324.09 195.948C323.948 196.05 323.831 196.183 323.747 196.337C323.663 196.491 323.615 196.661 323.606 196.836L322.608 211.8C309.983 216.925 285.353 227.899 275.239 236.912C271.799 228.828 271.421 224.425 269.357 224.425C268.05 224.425 268.05 224.631 264.025 241.005C258.831 243.448 237.09 253.561 231.379 254.387C229.625 249.158 237.64 212.969 253.808 190.025ZM383.634 182.525C380.194 180.874 374.931 183.626 371.8 185.518C373.176 183.076 375.24 179.017 372.557 177.744C369.365 176.937 365.984 177.406 363.131 179.051C366.743 174.889 370.424 170.176 374.999 164.19C378.834 159.244 382.154 153.919 384.906 148.297C385.56 155.9 386.833 169.935 388.519 188.064C386.767 188.113 385.049 188.56 383.496 189.371C384.528 187.72 387.143 184.28 383.634 182.525ZM123.363 277.16C120.921 273.72 118.547 269.145 122.297 267.253C123.454 266.938 124.688 267.086 125.737 267.665C127.693 268.586 129.529 269.742 131.207 271.105C131.401 271.25 131.636 271.329 131.878 271.331C132.12 271.332 132.356 271.256 132.552 271.114C132.748 270.972 132.893 270.771 132.967 270.541C133.04 270.31 133.038 270.062 132.961 269.833C132.05 267.466 131.651 264.934 131.791 262.402C131.791 262.058 131.791 261.783 132.239 261.68C133.498 261.424 134.805 261.556 135.988 262.058C138.049 262.788 140.022 263.746 141.871 264.913C142.048 265.016 142.25 265.07 142.455 265.07C142.661 265.07 142.862 265.016 143.04 264.913C144.795 263.778 141.114 259.616 143.04 253.871C143.382 252.712 143.976 251.642 144.779 250.738C145.581 249.834 146.573 249.119 147.684 248.642C151.571 247.094 156.766 247.954 156.8 252.461V253.424C156.796 253.633 156.855 253.839 156.971 254.013C157.086 254.188 157.251 254.323 157.445 254.402C157.64 254.48 157.853 254.498 158.057 254.452C158.261 254.406 158.447 254.3 158.589 254.146C161.169 251.566 164.781 243.413 169.391 245.684C170.801 246.406 170.388 247.61 170.285 249.124C170.182 250.637 170.732 252.289 172.108 252.117C174.31 251.841 187.416 239.251 186.178 247.266C185.898 248.762 185.436 250.218 184.802 251.601C184.727 251.811 184.725 252.04 184.796 252.251C184.867 252.462 185.007 252.644 185.193 252.767C185.379 252.889 185.601 252.946 185.823 252.928C186.045 252.91 186.255 252.818 186.419 252.667C189.274 249.468 198.011 241.212 200.832 244.033C201.692 244.893 201.039 248.539 200.626 249.777C200.372 250.21 200.072 250.614 199.731 250.981C199.112 251.91 199.422 252.942 200.557 252.942C204.375 252.942 208.366 245.718 213.01 245.718C216.895 245.44 220.755 246.536 223.915 248.814C224.259 249.158 225.703 252.598 227.079 251.188C229.659 248.642 225.703 243.551 223.639 239.595C222.917 238.15 221.713 235.364 223.227 234.71C224.522 234.352 225.898 234.424 227.148 234.917C227.767 236.189 228.868 238.357 230.038 237.325C231.207 236.293 230.863 234.779 228.387 233.609C228.056 232.818 227.791 232.002 227.595 231.167C227.595 230.685 227.32 229.447 227.595 229.172C229.333 228.125 231.35 227.633 233.375 227.761C231.827 232.646 225.875 252.942 229.453 256.554C229.931 256.957 230.549 257.155 231.173 257.105C236.264 256.864 260.929 245.34 265.573 243.345C266.536 242.897 265.986 243.104 269.495 229.585C272.694 237.978 273.141 240.352 274.758 240.386C276.375 240.421 275.549 237.737 293.953 227.899C308.126 220.331 324.087 213.864 324.087 213.864C324.302 213.782 324.49 213.642 324.629 213.46C324.769 213.278 324.855 213.06 324.879 212.832L325.601 198.659C335.921 201.445 336.265 201.549 336.85 201.17C345.469 195.853 353.385 189.473 360.414 182.181C363.854 180.255 369.186 177.985 371.8 179.292C373.555 180.186 369.977 186.172 368.635 187.823C368.553 187.967 368.521 188.134 368.543 188.298C368.565 188.463 368.641 188.615 368.758 188.732C368.875 188.85 369.028 188.925 369.192 188.947C369.356 188.969 369.523 188.937 369.667 188.855C371.353 187.617 379.299 182.388 382.808 184.142C386.317 185.897 379.196 190.506 381.363 191.951C382.017 192.364 382.842 191.779 383.565 191.297C385.064 190.4 386.772 189.914 388.519 189.887C390.514 210.871 392.99 237.118 395.639 265.085C389.84 266.528 384.517 269.456 380.194 273.582C374.677 273.083 369.122 273.957 364.026 276.128C362.237 276.885 362.65 278.57 364.439 278.536C364.026 278.536 365.471 278.536 367.879 279.155C368.773 278.88 178.472 277.332 123.363 277.16ZM385.939 349.744C385.939 349.744 387.074 350.329 388.553 351.189C382.361 355.317 368.739 362.713 367.466 365.224C367.309 365.585 367.278 365.988 367.378 366.368C367.478 366.749 367.702 367.085 368.016 367.322C368.876 368.285 368.67 367.563 368.532 368.905V374.856C368.189 377.939 367.544 380.981 366.606 383.937C365.035 384.315 363.384 384.183 361.893 383.559C353.465 379.878 348.649 373.721 349.543 364.501C353.809 365.121 356.251 365.843 357.077 365.912C357.903 365.981 360.139 364.467 357.524 363.469C355.942 362.885 356.011 343.999 358.04 344.893C358.165 344.918 358.295 344.899 358.407 344.839C358.519 344.779 358.607 344.682 358.656 344.564C358.704 344.446 358.711 344.315 358.674 344.194C358.637 344.072 358.559 343.967 358.453 343.896C361.893 338.667 361.893 338.77 361.893 338.048C361.845 337.873 361.759 337.71 361.64 337.573C361.52 337.436 361.372 337.328 361.205 337.257C359.901 336.553 358.801 335.525 358.012 334.271C357.222 333.018 356.77 331.581 356.699 330.101C356.533 327.872 356.789 325.631 357.455 323.497C358.769 324.111 360.211 324.4 361.66 324.34C363.108 324.28 364.522 323.873 365.78 323.153C365.058 324.632 364.267 326.386 365.299 327.625C366.099 328.45 367.15 328.989 368.289 329.157C369.427 329.325 370.588 329.113 371.594 328.553C371.657 328.529 371.715 328.492 371.764 328.444C371.813 328.397 371.852 328.341 371.879 328.279C371.906 328.216 371.921 328.149 371.922 328.081C371.923 328.013 371.911 327.946 371.886 327.883C371.861 327.819 371.824 327.762 371.777 327.713C371.73 327.664 371.674 327.625 371.611 327.598C371.549 327.57 371.482 327.556 371.414 327.554C371.346 327.553 371.279 327.565 371.215 327.59C369.824 327.644 368.463 327.178 367.397 326.283C368.354 323.9 369.505 321.599 370.837 319.403C374.518 321.226 374.277 319.403 373.864 321.261C372.867 329.861 382.671 332.613 388.622 326.902C389.609 325.865 390.464 324.709 391.167 323.462C392.154 323.664 393.177 323.592 394.126 323.256C396.018 324.46 395.777 323.772 395.674 324.804C395.606 325.292 395.665 325.789 395.846 326.247C396.027 326.705 396.323 327.108 396.706 327.418C396.777 327.816 396.777 328.224 396.706 328.622C391.615 331.477 391.924 329.792 391.064 332.372C389.241 333.335 389.31 335.296 388.863 337.05C388.656 337.841 386.454 345.65 385.594 348.471C385.525 348.688 385.52 348.922 385.581 349.142C385.642 349.362 385.767 349.559 385.939 349.709V349.744ZM370.011 369.214C371.912 370.607 373.253 372.632 373.795 374.925C374.277 377.333 373.795 377.917 374.277 378.743C374.445 379.001 374.684 379.204 374.965 379.328C373.034 380.984 370.866 382.341 368.532 383.353C369.248 380.63 369.765 377.859 370.08 375.062C370.218 373.824 369.908 371.244 370.011 369.18V369.214ZM370.011 365.774C373.864 362.334 389.516 352.668 391.443 350.053C393.885 351.533 397.566 353.803 399.871 355.454C392.991 360.958 384.081 368.045 376.375 375.234C375.894 370.487 373.348 368.939 370.149 365.877L370.011 365.774ZM297.049 433.68C307.305 433.212 317.527 432.167 327.665 430.549C332.172 438.499 337.764 445.781 344.28 452.187C351.078 458.455 358.807 463.63 367.191 467.529C362.134 476.473 353.809 488.479 345.312 494.293L322.127 481.324C319.753 473.309 318.893 466.222 316.313 458.482C314.804 453.175 311.822 448.404 307.713 444.722C304.72 441.557 297.393 434.402 296.911 433.749C296.43 433.095 296.877 433.852 297.049 433.68ZM326.874 428.073C319.512 429.173 299.698 431.513 292.887 430.928C294.247 417.799 294.764 404.597 294.435 391.402C299.595 395.84 306.578 401.722 313.286 407.639C310.409 408.528 307.913 410.357 306.199 412.833C305.984 413.268 305.871 413.745 305.87 414.23C305.869 414.715 305.979 415.193 306.191 415.628C306.404 416.064 306.714 416.445 307.097 416.741C307.48 417.038 307.926 417.243 308.401 417.34C308.891 417.41 309.39 417.41 309.88 417.34C309.733 417.83 309.696 418.346 309.773 418.852C309.851 419.358 310.04 419.84 310.327 420.264C310.833 421.056 311.564 421.679 312.426 422.053C312.801 422.123 313.186 422.123 313.561 422.053C313.477 422.391 313.477 422.746 313.561 423.085C314.249 428.726 319.787 425.733 325.085 423.841C327.699 422.947 327.665 423.085 329.282 424.392L326.874 428.073ZM354.669 362.713C350.836 361.735 346.894 361.25 342.939 361.268C341.356 361.268 341.528 361.646 341.597 361.268C342.182 356.727 344.487 344.068 347.583 340.628L356.871 344.068C354.6 346.854 353.603 358 354.6 362.85L354.669 362.713ZM354.669 342.073C353.568 341.522 348.683 339.149 347.789 338.633C346.895 338.117 346.516 338.633 345.794 339.561L344.659 339.355L354.153 328.829C354.087 330.582 354.418 332.329 355.121 333.937C355.823 335.545 356.88 336.974 358.212 338.117L354.669 342.073ZM344.659 340.903C342.5 344.771 340.99 348.966 340.186 353.321C339.392 356.718 338.84 360.167 338.535 363.641C338.526 363.819 338.553 363.996 338.614 364.163C338.676 364.329 338.771 364.482 338.893 364.611C339.015 364.739 339.163 364.842 339.326 364.912C339.489 364.982 339.665 365.018 339.843 365.017C341.956 363.908 344.401 363.603 346.723 364.157C346.314 367.664 346.811 371.218 348.167 374.477C337.385 385.47 326.028 395.885 314.146 405.678L294.228 389.545C294.228 385.485 294.228 381.77 293.953 378.777C293.643 371.003 293.437 370.934 292.474 369.833C289.813 367.151 286.949 364.679 283.908 362.437C301.005 352.221 324.5 338.151 344.831 340.972L344.659 340.903ZM327.287 421.64C324.982 421.64 319.478 424.289 316.554 424.22C315.935 424.22 315.763 423.463 315.728 422.844C317.895 420.229 323.743 419.404 323.743 417.305C323.743 417.305 323.159 415.62 321.851 416.205C319.064 417.594 316.164 418.745 313.183 419.645C312.922 419.432 312.701 419.176 312.529 418.888C312.254 418.372 312.529 418.269 312.529 418.131C315.104 416.38 317.92 415.012 320.888 414.072C321.171 413.914 321.387 413.659 321.496 413.355C321.606 413.05 321.602 412.716 321.484 412.414C321.367 412.113 321.144 411.863 320.858 411.713C320.571 411.562 320.24 411.52 319.925 411.595C316.141 412.868 316.003 413.349 313.045 414.209C312.116 414.45 308.848 415.413 308.435 414.553C308.023 413.693 310.293 411.973 311.256 411.423C315.084 409.25 319.352 407.969 323.743 407.673C327.596 407.673 327.975 407.914 336.024 413.625L329.935 423.257C329.234 422.465 328.311 421.902 327.287 421.64ZM328.697 406.401C325.059 405.253 321.155 405.253 317.517 406.401C328.672 397.037 339.252 387.008 349.199 376.369C351.893 380.773 355.97 384.16 360.792 386.001C362.265 386.638 363.87 386.909 365.471 386.793C360.345 398.007 345.381 404.268 341.906 409.806L340.496 408.946C340.221 408.777 339.891 408.722 339.576 408.793C339.262 408.864 338.987 409.054 338.811 409.325L336.815 412.489C333.754 410.013 329.97 407.123 328.697 406.435V406.401ZM390.617 309.255C390.617 310.425 389.688 311.181 389.723 312.695C389.716 313.265 389.825 313.83 390.044 314.357C390.263 314.883 390.586 315.359 390.995 315.757C391.5 316.152 392.041 316.498 392.612 316.789C392.874 316.88 393.11 317.033 393.3 317.236C392.831 318.336 392.507 319.492 392.337 320.676H392.062C392.647 318.853 392.302 317.236 391.133 316.685C386.605 314.612 381.606 313.781 376.651 314.277C375.756 314.277 374.655 317.133 374.346 318.096C373.276 317.44 372.117 316.942 370.906 316.617C371.525 314.965 371.284 313.589 370.252 312.901C367.708 311.402 364.867 310.474 361.927 310.184L362.65 308.326C363.513 307.954 364.244 307.331 364.748 306.537C365.539 305.471 366.915 302.788 367.363 303.097C368.395 303.407 369.564 305.368 372.213 303.304C373.123 302.443 373.962 301.511 374.724 300.517C375.765 301.189 376.844 301.798 377.958 302.341C380.125 302.822 381.673 300.793 382.567 300.483C383.015 301.033 383.771 302.065 383.978 302.272C384.544 302.689 385.198 302.97 385.889 303.095C386.581 303.221 387.292 303.186 387.968 302.994C387.28 306.365 389 306.916 390.583 309.289L390.617 309.255ZM396.362 285.588C389.677 282.744 382.775 280.444 375.722 278.708C374.311 278.398 364.576 277.297 364.232 277.229L364.645 276.988C370.374 274.751 376.644 274.295 382.636 275.681C395.192 279.121 416.004 288.821 423.228 299.761C425.781 303.215 427.831 307.014 429.317 311.044C425.975 308.242 422.848 305.195 419.96 301.928C413.371 294.828 405.304 289.262 396.327 285.622L396.362 285.588ZM423.056 289.853C423.056 291.401 422.678 292.915 422.506 294.429C413.803 284.831 393.025 275.612 381.914 273.513C394.057 263.881 407.611 264.604 415.591 271.071C418.224 273.401 420.269 276.32 421.56 279.589C422.851 282.859 423.352 286.388 423.022 289.888L423.056 289.853ZM320.613 280.944C371.903 280.944 367.294 280.944 366.915 281.288H365.264C363.31 281.711 361.554 282.777 360.276 284.315C358.453 287.136 358.969 287.033 359.141 289.372C358.486 289.975 357.908 290.657 357.421 291.401C356.83 292.293 356.497 293.33 356.461 294.399C356.424 295.468 356.685 296.526 357.215 297.456C356.905 298.213 356.251 298.969 355.976 299.795C355.814 300.203 355.77 300.649 355.849 301.08C355.928 301.512 356.127 301.913 356.423 302.237C356.662 302.429 356.915 302.601 357.18 302.753C357.303 302.805 357.409 302.888 357.49 302.994C357.318 303.682 356.87 304.198 356.733 304.886C356.683 305.378 356.761 305.874 356.96 306.326C357.159 306.778 357.472 307.171 357.868 307.466C358.621 308.026 359.428 308.51 360.276 308.911L359.863 310.012H357.352C356.664 310.012 355.667 311.732 355.357 312.351C354.404 313.777 353.896 315.453 353.896 317.167C353.896 318.881 354.404 320.557 355.357 321.983C354.819 323.511 354.439 325.09 354.222 326.696L342.629 339.355C332.783 338.964 322.968 340.676 313.836 344.377C302.684 348.894 291.975 354.433 281.844 360.924C277.682 357.759 272.866 354.25 268.669 351.326C299.079 343.07 342.526 300.517 320.613 280.944ZM235.92 331.477C247.203 337.497 284.665 364.57 290.616 371.278C291.27 372.069 291.339 371.278 291.614 378.915C292.027 390.817 292.13 418.303 290.341 429.965C289.343 429.173 236.78 387.859 233.753 385.657C233.547 380.36 234.888 337.119 235.92 331.477ZM116.896 458.757C116.655 458.757 116.483 458.757 116.38 458.551C116.277 458.345 116.38 457.175 116.862 456.453C118.788 453.013 123.191 450.708 129.315 444.585C130.754 443.29 131.924 441.724 132.755 439.975C133.202 438.255 133.959 430.962 134.165 428.898H154.151C153.018 434.918 151.583 440.876 149.851 446.752C144.967 449.16 122.331 459.961 116.896 458.757ZM144.416 463.161C141.458 463.161 123.123 463.573 120.336 463.161C120.214 462.49 120.214 461.802 120.336 461.131C127.181 459.56 133.836 457.253 140.185 454.251H150.505C148.441 457.003 146.48 460.03 144.519 463.161H144.416ZM170.01 427.213C163.137 435.205 156.859 443.69 151.227 452.6L142.799 452.772C147.375 450.639 150.78 448.85 151.227 448.644C151.599 448.405 151.888 448.056 152.053 447.646C153.664 441.422 154.882 435.103 155.699 428.726C160.034 428.726 161.582 428.726 161.995 427.625C163.095 425.217 183.185 387.584 186.419 381.633C187.519 381.633 185.352 379.775 201.795 401.172C218.17 396.837 232.996 396.597 255.425 405.541L263.062 411.595C248.614 405.093 232.962 399.865 216.966 400.759C210.218 401.114 203.528 402.198 197.014 403.993C186.625 409.565 178.231 418.475 170.113 427.213H170.01ZM181.052 498.661C193.367 485.177 203.997 472.483 212.769 463.608H231.07C218.067 478.228 205.063 492.917 193.711 505.748C189.402 503.613 185.21 501.248 181.155 498.661H181.052ZM163.508 559.24C160.041 559.348 156.665 558.116 154.083 555.8C157.867 549.711 198.562 503.925 234.407 463.401H248.167C174.895 546.718 164.437 558.655 163.508 559.24ZM208.779 511.665C221.197 497.389 235.645 480.877 250.85 463.505C255.735 463.505 259.14 463.711 260.482 463.917C271.283 483.869 294.641 491.437 317.07 494.396L335.474 504.716C325.202 510.412 314.071 514.397 302.519 516.515C272.797 522.329 232.308 519.508 208.779 511.665ZM336.059 505.679L313.045 534.128L288.38 520.368C305.114 518.804 321.345 513.803 336.059 505.679ZM268.6 521.675C274.551 521.675 280.09 521.262 285.284 520.746L311.6 535.745L306.784 541.696L268.6 521.675ZM361.48 564.125C360.822 565.787 359.955 567.359 358.9 568.803C355.942 567.324 338.604 558.277 319.306 548.163L323.847 542.659L361.48 564.125ZM275.48 596.392C273.092 595.771 270.924 594.496 269.219 592.711C269.426 592.401 300.179 554.252 338.845 506.436L346.826 510.873C297.015 571.108 277.819 594.431 275.48 596.392ZM468.877 566.705C467.792 569.097 466.515 571.398 465.059 573.585C454.738 568.562 268.979 463.505 261.411 461.75C257.627 460.787 217.413 461.75 213.01 461.75L220.991 453.563C225.153 453.563 264.094 453.563 267.259 454.389C277.579 457.416 467.604 566.705 468.843 566.705H468.877ZM355.735 500.106L347.72 495.703C356.251 489.408 364.335 477.712 369.495 468.527C372.676 469.756 375.989 470.61 379.368 471.073C379.85 471.107 380.847 469.8 355.701 500.106H355.735ZM419.96 445.376C416.599 452.645 411.166 458.761 404.343 462.954C383.703 475.545 364.198 466.394 345.863 450.226C339.393 443.838 333.847 436.578 329.385 428.657L340.083 411.629C372.11 430.584 368.807 428.073 376.96 432.785C377.614 433.129 378.336 433.508 380.056 434.505L383.668 436.673C386.145 438.117 385.491 438.461 386.248 438.496C387.59 438.496 386.248 435.881 384.15 434.093C381.474 432.162 378.53 430.632 375.412 429.552C381.759 418.718 388.719 408.254 396.259 398.213C396.345 398.104 396.385 397.965 396.369 397.826C396.353 397.687 396.282 397.56 396.173 397.474C396.063 397.387 395.924 397.348 395.785 397.364C395.646 397.38 395.52 397.45 395.433 397.56C387.59 407.508 380.33 417.902 373.692 428.692C369.461 426.593 347.617 413.315 343.558 410.838C346.757 405.644 362.443 398.901 367.328 386.414C375.206 384.488 383.29 374.993 387.968 368.423L401.04 356.933C407.506 361.432 412.687 367.538 416.073 374.649C421.974 387.627 425.158 401.675 425.43 415.929C426.01 426.042 424.134 436.146 419.96 445.376ZM491.168 317.786C493.851 317.786 499.734 319.609 500.697 321.467C500.938 321.845 495.227 330.101 427.666 412.661C427.419 407.934 426.821 403.231 425.877 398.592C461.928 354.009 490.171 319.025 491.203 317.786H491.168ZM480.848 328.657C469.462 342.417 449.131 367.116 425.361 396.046C423.568 388.465 421.033 381.08 417.793 373.996C414.25 366.786 408.906 360.613 402.279 356.073C402.42 355.865 402.477 355.611 402.439 355.362C402.4 355.113 402.269 354.888 402.072 354.732C399.32 352.909 394.435 350.432 391.752 348.953C391.679 348.913 391.598 348.892 391.515 348.89C391.432 348.889 391.349 348.907 391.275 348.945C391.201 348.982 391.137 349.036 391.088 349.103C391.039 349.171 391.007 349.249 390.995 349.331L388.243 347.817L390.479 340.937C391.293 341.505 392.238 341.857 393.224 341.96C394.211 342.062 395.208 341.911 396.121 341.522C396.537 341.222 396.908 340.862 397.222 340.456C398.19 341.051 399.29 341.397 400.425 341.463C401.559 341.529 402.693 341.313 403.723 340.834C405.172 339.915 406.358 338.634 407.163 337.119C407.92 336.018 408.058 335.812 410.053 335.846C411.983 336.148 413.955 335.692 415.557 334.573C417.339 332.728 418.327 330.258 418.309 327.693C420.072 326.97 421.568 325.719 422.59 324.111C423.613 322.503 424.112 320.618 424.019 318.715C436.816 320.607 468.12 325.32 480.848 328.76V328.657ZM429.248 190.644C429.97 188.958 431.587 189.44 433.238 190.265C434.89 191.091 434.924 192.605 435.199 194.325C436.713 203.165 446.758 190.403 449.647 194.772C450.976 196.981 451.43 199.607 450.92 202.133C450.25 203.327 449.503 204.477 448.684 205.573C448.536 205.752 448.455 205.977 448.455 206.21C448.455 206.442 448.536 206.667 448.684 206.846C451.367 209.529 458.798 204.989 461.618 207.844C462.753 209.203 463.47 210.862 463.684 212.62C463.897 214.377 463.598 216.159 462.823 217.751C461.825 220.262 459.589 222.464 460.139 223.633C460.69 224.803 461.343 224.493 462.134 223.633C462.926 222.773 470.941 220.434 472.454 221.363C472.881 221.709 473.228 222.144 473.472 222.637C473.715 223.129 473.849 223.669 473.865 224.218C474.175 227.245 472.558 227.933 471.629 229.275C470.7 230.617 471.25 231.649 472.558 231.649C476.892 231.649 482.155 225.56 486.318 227.693C487.384 228.243 486.318 231.511 485.423 232.818C484.529 234.125 483.772 234.607 484.116 235.605C484.804 237.6 488.657 235.605 490.514 234.607C494.333 232.577 497.876 230.445 500.284 234.057C501.587 236.237 502.04 238.821 501.557 241.315C501.385 242.003 499.734 243.929 499.596 244.755C499.321 246.234 501.075 246.441 502.52 246.165C505.513 245.615 511.189 242.725 511.292 244.514C511.292 247.025 507.233 252.736 507.233 254.146C507.267 254.469 507.42 254.767 507.661 254.983C507.903 255.199 508.216 255.318 508.54 255.316C508.884 255.316 516.762 254.662 517.243 254.8C522.644 256.141 517.037 262.987 519.583 265.533C521.234 267.218 524.192 265.533 526.703 264.741C526.978 264.741 527.838 264.466 527.976 264.741C528.905 266.633 524.158 268.181 522.231 269.248C520.305 270.314 520.374 272.309 521.612 272.688C522.205 272.773 522.808 272.773 523.401 272.688C526.841 273.823 527.322 277.745 527.219 281.357C522.369 281.116 456.321 278.88 456.08 278.88C448.829 251.399 439.739 224.438 428.87 198.177C428.569 195.663 428.697 193.116 429.248 190.644ZM459.967 304.164C452.85 304.967 445.786 306.185 438.811 307.81C436.816 308.326 435.062 308.911 433.617 309.358C433.48 309.386 433.36 309.466 433.282 309.582C433.205 309.698 433.177 309.841 433.204 309.977C433.231 310.114 433.312 310.235 433.428 310.312C433.544 310.389 433.686 310.418 433.823 310.39L437.057 310.149C442.797 309.616 448.49 308.65 454.085 307.26C456.159 306.675 458.203 305.986 460.208 305.196C461.63 311.044 462.983 317.041 464.267 323.187C458.591 322.224 430.762 318.061 423.503 317.064C423.459 316.443 423.218 315.853 422.815 315.378C423.625 313.793 424.248 312.119 424.673 310.39C425.922 311.681 427.306 312.834 428.801 313.83C430.349 314.484 432.654 313.245 431.656 309.668C429.895 305.319 427.583 301.215 424.776 297.456C424.948 295.082 425.361 292.743 425.636 290.266C426.136 285.319 425.078 280.34 422.611 276.023C420.145 271.706 416.392 268.267 411.876 266.186C407.73 264.629 403.279 264.052 398.873 264.501C398.047 256.21 397.222 247.679 396.362 239.354C397.764 239.37 399.165 239.301 400.559 239.148C407.508 238.287 414.353 236.731 420.992 234.504C421.129 234.476 421.249 234.396 421.327 234.28C421.404 234.164 421.432 234.021 421.405 233.885C421.378 233.748 421.297 233.627 421.181 233.55C421.065 233.473 420.923 233.444 420.786 233.472C412.474 234.149 404.255 235.682 396.259 238.047C390.548 181.218 388.312 165.05 387.177 143.241C388.498 139.812 389.377 136.228 389.791 132.577C395.061 140.314 399.664 148.485 403.551 157.001C403.792 157.482 404.033 157.413 406.613 158.136C430.624 201.48 448.203 254.765 459.967 304.233V304.164ZM404.927 155.728C400.763 146.864 395.74 138.43 389.929 130.547C390.018 129.191 389.948 127.828 389.723 126.488C389.67 126.321 389.576 126.171 389.45 126.051C389.324 125.93 389.169 125.844 389 125.8C399.079 123.873 425.327 119.195 435.647 120.055C481.123 123.77 512.255 135.845 536.335 174.132C544.007 186.275 541.289 207.637 535.544 218.439C535 219.508 534.305 220.493 533.48 221.363C529.696 217.923 510.467 197.283 506.889 193.637L505.41 181.149C505.38 180.956 505.308 180.772 505.199 180.609C505.091 180.446 504.948 180.31 504.781 180.208C504.614 180.106 504.426 180.042 504.232 180.021C504.037 179.999 503.841 180.021 503.655 180.083L493.335 184.073L455.977 168.765C451.195 155.9 451.539 156.209 450.679 156.037C449.819 155.865 450.232 155.762 440.91 165.257L404.927 155.728Z" fill="black" style="fill:black;fill-opacity:1;"/>
</g>
</svg>
