<svg width="235" height="138" viewBox="0 0 235 138" fill="none" xmlns="http://www.w3.org/2000/svg">
<rect x="-1.5" y="-1.5" width="238" height="137.384" rx="5.5" fill="white" stroke="black" stroke-width="3"/>
<mask id="mask0_0_52" style="mask-type:luminance" maskUnits="userSpaceOnUse" x="-3" y="-3" width="241" height="141">
<rect x="-1.5" y="-1.5" width="238" height="137.384" rx="5.5" fill="white" stroke="white" stroke-width="3"/>
</mask>
<g mask="url(#mask0_0_52)">
<path fill-rule="evenodd" clip-rule="evenodd" d="M126.711 123.716C126.711 122.713 128.091 120.933 128.093 120.024C126.933 119.816 125.963 118.234 126.22 117.244C126.673 116.896 127.86 116.211 128.351 115.891C131.342 115.982 130.205 111.797 130.544 109.669C130.885 107.588 131.138 105.411 131.637 103.318C132.523 101.643 132.939 99.7656 133.786 98.0991C134.164 97.5468 134.775 97.0405 134.958 96.3989C136.811 94.3638 139.362 93.144 141.461 91.4203C140.646 91.1581 140.7 90.0531 140.753 89.3436C140.563 88.4179 140.766 87.2568 141.605 86.7353C141.889 85.8057 143.129 85.4812 143.854 86.0734C144.331 83.9264 146.194 82.6238 148.146 81.8271C148.144 81.8208 148.143 81.8146 148.141 81.8083C150.11 81.0225 152.47 80.6308 154.434 81.0725C153.397 69.4533 162.246 69.0267 166.737 70.0032C169.034 70.5027 172.481 72.0576 173.264 74.2192C173.706 75.4396 174.974 79.3754 175.155 80.6308C178.584 78.6627 182.56 76.0676 185.534 80.0297C186.13 80.7202 186.789 81.2331 187.68 81.4703C190.463 82.1965 194.157 82.2208 195.738 85.0736C196.684 86.841 195.833 88.0055 196.087 89.7735C208.614 98.6202 219.082 131.211 216.731 146.373C216.166 151.799 213.405 161.403 206.592 160.205C203.116 164.028 144.784 164.028 138.769 160.205C133.818 161.508 128.787 159.492 126.711 154.723C124.074 148.183 126.868 141.121 127.363 134.413C127.664 132.719 128.112 131.375 128.351 129.641C128.451 128.918 128.107 127.716 128.351 127.05C128.236 126.617 126.711 124.718 126.711 123.716Z" fill="white"/>
<path fill-rule="evenodd" clip-rule="evenodd" d="M154.284 77.3171C154.146 77.9104 154.272 78.5793 154.249 79.1882C154.227 79.7701 154.159 80.3487 154.058 80.922C153 80.3625 151.751 80.2907 150.545 80.4707C148.986 80.7037 147.182 81.2193 145.96 82.2669C145.658 82.5257 145.409 82.832 145.199 83.1698C144.948 83.5751 144.788 84.0329 144.39 84.3233C143.774 84.7726 143.01 84.9465 142.418 85.4443C141.814 85.9519 141.439 86.7106 141.36 87.4937C141.318 87.9105 141.386 88.3002 141.465 88.7067C141.535 89.0724 141.501 89.2225 141.405 89.5746C141.33 89.851 141.473 90.1647 141.707 90.3172C141.206 90.6633 140.711 91.0201 140.225 91.3915C137.393 93.553 134.998 96.2474 133.338 99.4178L133.298 99.4965L133.252 99.5912C132.847 100.427 131.789 102.871 131.657 103.42C131.563 103.707 131.472 103.995 131.387 104.285C131.164 105.053 130.974 105.83 130.817 106.614L130.775 106.828C130.648 107.487 130.428 108.266 130.463 108.968C130.096 110.884 129.77 112.808 129.492 114.74C129.456 114.993 129.556 115.199 129.711 115.335C129.34 115.395 128.97 115.469 128.605 115.544L128.392 115.588L128.286 115.612C127.525 115.785 126.774 116.036 126.276 116.679C125.738 117.374 125.727 118.268 126.267 118.968C126.725 119.563 127.395 119.846 128.093 120.024C128.231 120.059 128.371 120.091 128.51 120.119C128.603 120.139 128.665 120.01 128.576 119.961L128.428 119.878L128.226 119.767C127.699 119.475 127.152 119.145 126.861 118.619C126.465 117.903 126.778 117.241 127.457 116.878C128.026 116.574 128.729 116.496 129.36 116.392L129.621 116.349C130.281 116.243 130.954 116.174 131.62 116.25C132.203 116.317 132.794 116.517 133.265 116.875L133.308 116.909L133.353 116.947C133.766 117.307 134.36 118.115 133.581 118.348C132.986 118.525 132.261 118.481 131.635 118.516L131.554 118.521C131.03 118.557 130.483 118.557 129.953 118.62C129.763 118.642 129.576 118.673 129.392 118.717C128.866 118.842 129.047 119.546 129.511 119.595C129.624 119.608 129.74 119.614 129.856 119.616C130.159 119.846 130.578 119.95 130.936 120.092C131.279 120.229 131.623 120.364 131.969 120.496C131.671 120.51 131.373 120.535 131.076 120.572C130.98 120.583 130.978 120.713 131.076 120.723C131.791 120.796 132.505 120.876 133.218 120.976C134.321 121.13 135.416 121.335 136.487 121.649C137.27 121.879 138.043 122.153 138.793 122.473L139.02 122.571L139.113 122.612C139.794 122.909 140.674 123.256 141.066 123.909C141.27 124.25 141.36 124.777 141.072 125.103C140.763 125.454 140.117 125.414 139.685 125.431L139.651 125.433C138.736 125.477 137.821 125.484 136.905 125.451C134.986 125.383 133.066 125.173 131.182 124.802C130.834 124.734 130.684 125.258 131.034 125.34C133.256 125.859 135.504 126.144 137.784 126.157L138.034 126.158C138.922 126.329 139.793 126.583 140.657 126.871L140.83 126.929C141.34 127.102 142.212 127.275 142.512 127.784C142.712 128.122 142.642 128.354 142.444 128.511C142.097 128.788 141.358 128.84 140.998 128.854C139.556 128.908 138.113 128.918 136.67 128.887C135.949 128.871 135.228 128.845 134.507 128.808C133.802 128.771 133.049 128.665 132.346 128.733C132.044 128.763 131.943 129.209 132.271 129.292C133.137 129.513 134.109 129.494 135.004 129.522L135.107 129.525C136.068 129.56 137.031 129.575 137.992 129.572C138.817 129.569 139.642 129.552 140.466 129.522L141.195 129.493L141.324 129.487C141.712 129.466 142.109 129.421 142.453 129.26C142.771 129.795 142.533 130.513 142.123 130.937C141.732 131.341 141.169 131.539 140.629 131.663C140.579 131.674 140.528 131.685 140.478 131.696C139.292 131.938 138.084 131.917 136.975 132.465C136.042 132.926 135.188 133.695 134.143 133.877C133.209 134.04 132.53 133.626 132.032 132.861C132.005 132.818 131.978 132.776 131.952 132.734C131.56 132.099 131.278 131.401 130.865 130.778C130.654 130.461 130.416 130.156 130.125 129.908C129.995 129.795 129.081 129.307 128.937 129.161C128.322 128.526 128.867 127.192 128.707 126.396C128.52 125.47 127.71 125.144 127.224 124.426C126.301 123.061 128.833 121.781 128.076 120.288C128.066 120.269 128.054 120.256 128.038 120.247C127.971 120.211 127.865 120.256 127.871 120.344C127.955 121.457 126.9 122.223 126.52 123.187C126.086 124.284 126.778 124.948 127.486 125.681C128.393 126.621 127.754 127.675 127.956 128.808C127.983 128.956 128.025 129.087 128.08 129.204C127.925 129.301 127.806 129.461 127.78 129.685C127.468 132.337 127.134 134.981 126.588 137.597L126.471 138.152L126.315 138.894C125.926 140.748 125.563 142.61 125.494 144.505C125.277 146.105 125.191 147.718 125.319 149.328C125.709 154.23 128.434 159.359 133.384 160.863C134.53 161.212 135.745 161.302 136.921 161.058C137.324 160.975 137.888 160.792 138.395 160.514C138.365 160.841 138.341 161.167 138.331 161.493C138.164 161.68 138.088 161.963 138.184 162.204C138.587 162.071 138.954 161.859 139.285 161.57L139.339 161.521C139.535 160.789 139.593 159.988 139.621 159.216L139.628 158.997C139.636 158.784 139.641 158.574 139.648 158.37C139.69 157.097 139.661 155.822 139.595 154.55L139.547 153.614C139.437 151.431 139.348 149.252 139.408 147.063C139.477 144.543 139.691 142.034 139.96 139.529C140.099 138.236 140.257 136.946 140.419 135.655C140.548 134.617 140.765 133.499 140.768 132.428C141.598 132.25 142.412 131.907 142.923 131.207C143.464 130.465 143.544 129.515 143.063 128.754C143.528 128.115 143.147 127.513 142.573 127.106C143.455 126.609 143.947 125.253 144.077 124.31C144.166 123.663 144.194 122.695 143.92 121.967C144.314 121.981 144.708 122.022 145.103 122.09C145.559 122.171 146.006 122.288 146.447 122.435L146.671 122.509C146.784 122.547 146.91 122.592 147.037 122.644C146.239 123.97 147.263 125.173 148.577 125.516C148.827 125.581 149.082 125.627 149.34 125.664C149.92 125.745 150.513 125.77 151.089 125.823C152.19 125.925 153.298 126.07 154.404 126.117C154.647 126.128 154.803 126.014 154.877 125.855C154.879 125.853 154.881 125.852 154.881 125.849C154.906 125.807 154.924 125.762 154.93 125.715C154.926 125.719 154.921 125.722 154.918 125.724C154.971 125.426 154.793 125.065 154.404 125.021C152.808 124.84 151.19 124.832 149.589 124.699L149.486 124.691C148.984 124.647 148.392 124.567 147.994 124.247C147.624 123.949 147.591 123.562 147.739 123.213C147.741 123.222 147.744 123.232 147.745 123.24C147.756 123.31 147.851 123.307 147.882 123.259C147.974 123.118 147.998 122.979 147.974 122.845C148.085 122.716 148.219 122.602 148.365 122.514C149.01 122.12 149.857 122.012 150.591 121.895C151.393 121.768 152.201 121.71 153.011 121.671C154.605 121.596 156.203 121.726 157.771 122.013C157.836 122.024 157.863 121.933 157.799 121.912C157.188 121.708 156.563 121.537 155.931 121.402C155.945 121.4 155.96 121.397 155.975 121.393C156.03 121.38 156.07 121.312 156.051 121.257C156.049 121.248 156.045 121.24 156.042 121.232C156.31 121.109 156.422 120.692 156.097 120.524C155.083 119.997 153.892 119.759 152.779 119.542C151.711 119.335 150.631 119.19 149.55 119.061C147.723 118.845 145.73 118.85 143.972 118.27L143.899 118.246C143.183 117.997 142.328 117.494 142.278 116.644C142.204 115.359 144.103 115.694 144.895 115.725C147.06 115.808 149.223 115.959 151.378 116.192C151.818 116.239 152.258 116.287 152.698 116.337C153.372 116.412 154.047 116.492 154.72 116.576C155.096 116.623 155.481 116.685 155.868 116.745C155.989 116.774 156.107 116.795 156.225 116.807C156.234 116.808 156.241 116.805 156.247 116.802C156.811 116.881 157.376 116.942 157.926 116.924C157.989 116.923 158.028 116.824 157.962 116.794C157.252 116.492 156.462 116.313 155.669 116.173C155.179 115.805 154.586 115.51 154.099 115.225C153.431 114.833 152.666 114.257 151.908 114.023C151.567 113.753 151.18 113.536 150.824 113.388C150.926 113.228 150.963 113.006 150.944 112.819C150.877 112.149 150.343 111.775 149.727 111.643C149.536 111.604 149.315 111.574 149.08 111.563C149.075 111.438 149.019 111.315 148.896 111.223L148.86 111.195L148.834 111.175C148.42 110.837 147.599 109.886 148.588 109.816C149.113 109.779 149.557 110.166 149.975 110.427C150.842 110.972 151.681 110.999 152.672 110.864L153.118 110.799L153.192 110.789C153.908 110.695 154.635 110.682 155.035 111.416C155.464 112.202 155.614 112.919 156.479 113.351C157.306 113.764 158.224 113.846 158.983 114.413C159.797 115.02 160.408 115.873 161.073 116.629C162.541 118.295 164.221 119.766 165.951 121.149L166.259 121.395C167.852 122.661 169.497 123.908 171.281 124.884C171.294 124.89 171.306 124.892 171.317 124.892C171.365 124.887 171.401 124.826 171.358 124.783C169.274 122.747 166.836 121.096 164.695 119.114C163.747 118.236 162.843 117.311 161.974 116.352C161.215 115.51 160.542 114.565 159.657 113.848C159.227 113.5 158.763 113.233 158.243 113.047C157.757 112.873 157.212 112.786 156.765 112.518C155.889 111.995 155.974 110.756 155.097 110.193C154.346 109.71 153.431 109.887 152.598 110.001L152.498 110.015C151.959 110.087 151.4 110.147 150.885 109.933C150.375 109.721 149.965 109.324 149.451 109.114C148.735 108.817 147.719 108.888 147.352 109.68C147.001 110.436 147.48 111.12 148.04 111.622C147.277 111.761 146.608 112.132 146.551 112.888C145.991 112.869 145.433 112.849 144.874 112.829C142.925 112.761 140.967 112.63 139.017 112.665C139.062 112.465 139.081 112.259 139.084 112.05C139.085 111.933 139.08 111.817 139.072 111.698C139.057 111.494 138.924 111.372 138.726 111.351L138.286 111.303L138.139 111.289C137.314 111.21 136.391 111.194 135.762 111.742C135.425 112.039 135.152 112.72 135.318 113.175C134.933 113.308 134.567 113.477 134.233 113.692C133.571 113.469 132.876 113.494 132.211 113.727L132.132 113.755C131.659 113.93 130.988 114.26 130.731 114.732C131.355 110.479 132.196 106.262 133.253 102.096C133.928 100.432 134.78 98.8417 135.814 97.374C138.418 93.6757 142.17 91.1324 145.539 88.2087C145.836 88.5377 146.157 88.8508 146.456 89.1521L146.583 89.2805C147.193 89.9018 147.829 90.4964 148.48 91.0745C149.839 92.283 151.27 93.3983 152.69 94.5315C155.553 96.8161 158.142 99.2419 160.296 102.225C160.335 102.278 160.442 102.247 160.412 102.175C158.935 98.6436 155.872 95.9584 153.09 93.4668C151.627 92.1567 150.13 90.8781 148.723 89.5061C148.067 88.8664 147.432 88.2047 146.832 87.5111L146.683 87.337C146.291 86.8757 145.374 85.4673 144.767 86.4834C144.64 86.696 144.646 86.9679 144.767 87.1807C144.939 87.4831 145.158 87.7715 145.397 88.0486C144.547 88.5137 143.714 89.0049 142.9 89.5248C142.946 89.2743 142.935 88.9974 142.891 88.7204L142.877 88.6324L142.818 88.2889C142.733 87.7824 142.689 87.3116 143.008 86.8176C143.408 86.1996 144.161 86.0069 144.761 85.6498C145.453 85.2383 145.814 84.6878 146.184 83.989C146.893 82.6513 148.495 82.115 149.871 81.6846L150.045 81.6306C151.317 81.2341 152.693 81.0219 153.965 81.4029C153.845 81.9614 153.689 82.5119 153.494 83.0482C153.286 83.6191 152.812 84.2538 152.861 84.8704C152.894 85.2971 153.403 85.7532 153.826 85.4271C154.424 84.9655 154.543 84.2139 154.704 83.4977C154.859 82.8052 154.958 82.0957 155 81.3872C155.04 80.7043 155.009 80.0218 154.925 79.3436L154.861 78.8455L154.845 78.7299C154.775 78.2264 154.671 77.6979 154.39 77.3032C154.362 77.2653 154.296 77.2644 154.284 77.3171ZM171.64 74.486C171.631 74.5263 171.624 74.566 171.619 74.6058C171.578 74.7756 171.562 74.9389 171.567 75.1028C171.565 75.1619 171.569 75.2212 171.58 75.2798C171.602 75.4728 171.648 75.6708 171.711 75.8874C171.844 76.3481 171.996 76.8032 172.166 77.2515C172.503 78.138 172.9 78.9839 173.391 79.7947C174.278 81.2593 175.405 82.475 176.735 83.5259C176.482 83.7352 176.236 83.953 175.989 84.1668C174.794 85.2005 173.632 86.281 172.507 87.39C170.508 89.3598 168.549 91.3661 166.637 93.4205C165.693 94.4337 164.767 95.4602 163.847 96.4936L163.816 96.5284L163.784 96.5675C163.457 96.9652 162.803 97.9136 162.315 97.7613C162.069 97.6842 161.81 97.3147 161.642 97.1385L161.333 96.8143C161.23 96.7059 161.128 96.5969 161.028 96.4863C159.229 94.5043 157.527 92.4461 155.928 90.2949C155.149 89.2452 154.395 88.1759 153.668 87.0879C153.295 86.5286 152.928 85.9643 152.569 85.3953C152.222 84.845 151.941 84.2536 151.429 83.8428C151.054 83.5414 150.533 83.8178 150.628 84.3119C150.777 85.0902 151.313 85.7483 151.734 86.406C152.158 87.067 152.591 87.7215 153.035 88.3691C153.888 89.616 154.778 90.8365 155.7 92.0325C156.494 93.0625 157.322 94.0661 158.173 95.0493L158.406 95.3169C159.321 96.3661 160.219 97.4798 161.23 98.4374C162.135 99.2949 163.124 99.0451 163.949 98.2117C164.992 97.1581 165.961 96.0186 166.965 94.9265C168.971 92.7442 170.997 90.5785 173.045 88.4358L173.718 87.7306C174.503 86.9067 175.285 86.0776 176.046 85.2333L176.144 85.1232C177.012 84.1411 177.895 82.9107 179.13 82.4113C179.219 82.3753 179.186 82.2478 179.09 82.2657C178.3 82.4126 177.64 82.8129 177.026 83.2912C176.475 82.3731 175.982 81.4054 175.553 80.4156L175.829 80.2954C177.798 79.4394 180.019 78.5763 182.134 78.7151C182.986 78.7708 183.895 79.0956 184.484 79.739C185.017 80.3219 185.283 81.108 185.772 81.7288C186.332 82.4398 187.062 82.7598 187.959 82.7887L188.395 82.802C188.896 82.8184 189.377 82.8448 189.886 82.9558C191.264 83.2562 192.717 83.7437 193.872 84.5762C194.292 84.8781 194.725 85.2933 194.927 85.7508C195.128 86.204 195.186 86.7343 195.206 87.2235C195.215 87.462 195.144 87.7769 195.203 88.0051C195.197 87.979 195.194 87.9928 195.193 88.0201C195.008 88.1666 194.882 88.4101 194.868 88.6528C193.716 88.049 192.524 87.5198 191.308 87.0427C189.954 86.5116 188.559 86.086 187.163 85.683C185.797 85.2887 184.366 85.1256 182.974 84.8445C182.796 84.8087 182.735 85.0495 182.9 85.1135C184.364 85.6789 185.78 86.3491 187.256 86.8811C188.732 87.4129 190.196 87.9885 191.628 88.6283C194.397 89.8653 197.072 91.4394 199.254 93.575C201.384 95.6609 203.028 98.1948 204.556 100.743C206.095 103.308 207.469 105.967 208.693 108.699C211.115 114.103 212.932 119.784 214.128 125.587C215.291 131.235 215.942 137.084 215.725 142.856C215.622 145.598 215.289 148.341 214.515 150.978C214.145 152.238 213.682 153.469 213.097 154.644C212.48 155.883 211.648 156.986 211.085 158.246C211.038 158.35 211.021 158.449 211.023 158.542C208.62 160.636 204.859 159.225 202.258 157.975C196.273 155.097 190.4 151.947 184.817 148.333C179.307 144.766 174.085 140.785 168.987 136.653C169.381 136.244 169.729 135.786 170.034 135.37C170.665 134.513 171.14 133.541 171.466 132.527C171.848 131.34 171.967 130.069 171.858 128.829L171.827 128.478C171.724 127.306 171.604 126.118 171.348 124.973C171.346 124.958 171.334 124.952 171.322 124.952C171.31 124.952 171.297 124.959 171.293 124.973C170.604 127.19 170.548 129.574 169.774 131.762C169.463 132.642 168.979 133.493 168.4 134.223C168.15 134.539 167.857 134.813 167.557 135.08C167.537 134.944 167.51 134.809 167.47 134.676L167.437 134.571C167.397 134.444 167.348 134.302 167.279 134.177C167.376 134.148 167.471 134.117 167.565 134.083C167.639 134.055 167.655 133.935 167.565 133.915C167.319 133.858 167.067 133.83 166.809 133.817C166.768 133.811 166.729 133.81 166.69 133.812C166.208 133.797 165.717 133.832 165.253 133.84C164.448 133.852 163.646 133.867 162.842 133.903C161.304 133.97 159.568 134.266 158.054 133.907C156.679 133.579 155.323 132.657 154.22 131.79C153.257 131.031 152.513 130.13 151.714 129.232C151.771 129.241 151.828 129.249 151.885 129.257L152.4 129.328C153.051 129.416 153.824 129.484 154.341 129.17C154.538 129.049 154.481 128.777 154.281 128.702C153.753 128.508 153.099 128.669 152.537 128.642C152.096 128.62 151.649 128.574 151.214 128.482C151.071 128.452 150.93 128.417 150.789 128.376C149.759 128.078 148.549 127.027 149.367 125.879C149.398 125.836 149.363 125.796 149.322 125.788C149.303 125.785 149.283 125.788 149.267 125.802C148.336 126.578 148.82 127.969 149.701 128.565C150.004 128.771 150.347 128.914 150.702 129.02C150.634 129.145 150.622 129.299 150.703 129.445C151.393 130.682 152.561 131.769 153.656 132.642C154.78 133.54 156.076 134.386 157.47 134.783C159.08 135.239 160.848 134.896 162.481 134.751C163.366 134.672 164.248 134.58 165.132 134.477C165.369 134.45 165.614 134.428 165.863 134.405C165.628 134.715 165.442 135.072 165.32 135.286C164.923 135.983 165.29 136.9 166.059 137.113C166.139 137.135 166.221 137.148 166.303 137.15C166.51 137.568 167.003 137.875 167.459 137.718C167.657 137.65 167.848 137.557 168.032 137.445C170.9 139.978 173.919 142.356 177.024 144.584C182.783 148.716 188.82 152.49 195.079 155.808C196.489 156.555 197.909 157.283 199.342 157.982L200.575 158.579C201.94 159.24 203.337 159.897 204.787 160.307C205.069 160.387 205.365 160.451 205.668 160.501C205.672 160.528 205.673 160.554 205.671 160.579C205.944 160.616 206.182 160.621 206.385 160.596L206.431 160.59C208.208 160.715 210.108 160.278 211.251 158.973C211.442 159.108 211.72 159.123 211.965 158.929C213.198 157.956 213.932 156.475 214.577 155.061C215.231 153.627 215.744 152.132 216.12 150.601C216.873 147.542 217.171 144.387 217.187 141.241C217.244 129.117 214.224 116.887 208.98 106.003C207.65 103.242 206.184 100.533 204.557 97.9383C202.934 95.3504 201.049 92.9454 198.635 91.058C197.941 90.5154 197.219 90.0193 196.475 89.5622C196.974 89.313 197.173 88.6793 197.208 88.1164C197.286 86.8662 197.137 85.4259 196.41 84.3711C195.389 82.8912 193.561 81.9788 191.866 81.5351C190.981 81.3035 190.066 81.1686 189.153 81.123C188.683 81.0993 188.194 81.1771 187.729 81.1261C187.319 81.0812 187.065 80.8351 186.83 80.5114C186.225 79.6819 185.832 78.8119 184.965 78.2038C184.076 77.58 182.923 77.3413 181.852 77.406C180.604 77.4815 179.466 77.976 178.366 78.5443C177.374 79.0571 176.411 79.6253 175.473 80.2313C175.301 79.8259 175.139 79.4174 174.988 79.0076C174.696 78.2129 174.441 77.3929 174.235 76.5714C174.026 75.7384 174.057 74.6383 173.425 74.0119C172.876 73.4674 171.818 73.6812 171.64 74.486ZM129.063 130.069L129.067 130.07C130.345 130.831 130.956 132.734 131.557 133.566C131.508 133.845 131.474 134.128 131.406 134.392C131.251 134.999 131.047 135.6 130.812 136.177C130.398 137.197 129.879 138.169 129.4 139.158C129.014 139.953 128.636 140.763 128.342 141.6C128.374 141.633 128.403 141.671 128.428 141.718C128.747 142.319 128.997 142.2 129.585 142.069L129.586 142.068C129.922 141.032 130.408 140.059 130.844 139.065L130.95 138.822L131.055 138.579C131.419 137.729 131.752 136.87 131.946 135.958C132.069 135.377 132.12 134.779 132.127 134.185C132.446 134.45 132.829 134.639 133.312 134.712C134.346 134.869 135.282 134.218 136.124 133.696L136.314 133.579C136.842 133.256 137.364 132.958 137.972 132.806C138.662 132.633 139.376 132.633 140.077 132.545C140.161 132.533 140.246 132.522 140.331 132.509C140.057 133.42 139.93 134.409 139.768 135.321C139.541 136.6 139.356 137.89 139.179 139.177C138.834 141.67 138.593 144.184 138.471 146.699C138.353 149.134 138.413 151.559 138.5 153.993L138.544 155.181C138.579 156.147 138.608 157.115 138.591 158.081C138.544 158.085 138.497 158.092 138.45 158.104C137.965 158.218 137.633 158.716 137.19 158.938C136.253 159.406 135.122 159.4 134.125 159.163C131.857 158.623 129.971 157.031 128.729 155.087C127.238 152.754 126.691 150.009 126.708 147.262C126.729 144.171 127.226 141.216 127.919 138.232L127.964 138.041C128.547 135.555 128.912 130.092 129.063 130.069ZM192.561 123.832C192.548 124.663 192.884 125.553 193.069 126.36C193.268 127.231 193.466 128.101 193.667 128.971L193.848 129.751C193.999 130.4 194.147 131.05 194.28 131.704C194.39 132.241 194.436 132.949 194.615 133.542C192.482 132.674 190.346 131.815 188.213 130.951C185.586 129.885 182.946 128.849 180.312 127.8C177.689 126.756 175.08 125.569 172.403 124.677C171.766 124.464 171.334 125.486 171.944 125.77C174.663 127.038 177.539 128.031 180.325 129.141L184.354 130.75C188.047 132.224 191.743 133.69 195.457 135.106C197.987 136.071 200.508 137.063 203.054 137.979C204.268 138.416 205.492 138.828 206.7 139.281C207.712 139.66 208.806 140.223 209.181 141.316C209.201 141.373 209.278 141.349 209.27 141.291C209.118 140.232 208.337 139.571 207.456 139.07C206.286 138.404 205.002 137.919 203.768 137.385L203.6 137.311C201.079 136.206 198.538 135.145 195.99 134.102C196.015 134.04 196.03 133.974 196.031 133.904L196.038 133.906C196.084 133.432 195.868 133.01 195.713 132.569L195.267 131.304C194.97 130.462 194.704 129.61 194.429 128.76C194.142 127.872 193.853 126.984 193.563 126.097C193.318 125.345 193.154 124.449 192.735 123.777C192.684 123.697 192.545 123.742 192.561 123.832ZM143.476 121.963L143.508 122.124C143.545 122.313 143.58 122.503 143.588 122.694C143.613 123.193 143.557 123.693 143.425 124.175C143.295 124.652 143.114 125.113 142.856 125.536C142.612 125.933 142.259 126.246 142.033 126.654C142.01 126.697 141.995 126.74 141.989 126.783C141.903 126.747 141.817 126.714 141.735 126.688C141.047 126.469 140.345 126.285 139.633 126.148L139.746 126.14L139.818 126.134C141.009 126.033 142.132 125.642 141.889 124.244C141.752 123.454 141.135 122.924 140.474 122.549L140.392 122.503C140.356 122.483 140.319 122.463 140.283 122.446C140.881 122.344 141.315 122.219 142.048 122.095C142.524 122.015 143.001 121.97 143.476 121.963ZM197.848 104.75C196.678 107.127 195.797 109.656 195.133 112.221C194.812 113.46 194.54 114.711 194.321 115.972L194.25 116.393L194.209 116.621C194.004 117.745 193.745 118.963 194.045 120.06C194.143 120.418 194.734 120.56 194.9 120.172C195.4 119.002 195.329 117.657 195.474 116.405C195.626 115.091 195.834 113.784 196.093 112.487C196.59 109.995 197.288 107.562 198.065 105.147L198.152 104.879C198.218 104.7 197.931 104.582 197.848 104.75ZM152.866 115.387C153.214 115.552 153.563 115.704 153.871 115.855C153.895 115.867 153.919 115.878 153.944 115.891C153.595 115.831 153.245 115.775 152.895 115.723C152.899 115.609 152.888 115.497 152.866 115.387ZM139.219 114.197C139.272 114.214 139.318 114.241 139.358 114.279L139.378 114.299C139.426 114.344 139.46 114.397 139.48 114.459C139.511 114.518 139.525 114.582 139.522 114.65L139.505 114.781C139.481 114.865 139.439 114.938 139.378 115L139.278 115.078C139.211 115.117 139.139 115.139 139.062 115.144L139.029 115.145L138.93 115.145C138.872 115.144 138.819 115.129 138.768 115.103C138.716 115.086 138.67 115.058 138.629 115.02L138.61 115C138.562 114.955 138.528 114.902 138.508 114.841C138.481 114.79 138.467 114.736 138.465 114.679L138.465 114.65L138.483 114.518C138.504 114.444 138.538 114.379 138.588 114.323L138.61 114.299L138.71 114.221C138.777 114.182 138.849 114.16 138.925 114.155L138.958 114.154H139.029C139.097 114.151 139.161 114.166 139.219 114.197ZM142.426 114.029C142.688 114.077 142.836 114.396 142.77 114.638C142.697 114.906 142.443 115.026 142.189 114.989L142.164 114.985C141.866 114.93 141.574 114.951 141.29 115.056C141.04 115.149 140.75 114.952 140.684 114.71C140.608 114.433 140.777 114.193 141.028 114.1C141.478 113.933 141.96 113.942 142.426 114.029ZM194.348 96.4225C193.751 97.3013 193.379 98.4696 193.012 99.4739L192.975 99.5738C192.585 100.629 192.208 101.693 191.857 102.763C191.156 104.897 190.242 107.131 190.073 109.387C190.042 109.803 190.675 109.97 190.859 109.601C191.387 108.54 191.67 107.435 191.982 106.298C192.28 105.213 192.59 104.133 192.901 103.052C193.211 101.972 193.511 100.888 193.816 99.8069C194.114 98.7548 194.527 97.5849 194.595 96.4899C194.604 96.3477 194.416 96.3214 194.348 96.4225ZM180.889 89.3473C180.093 89.9029 179.441 90.7156 178.767 91.4106C178.084 92.1159 177.41 92.8276 176.742 93.5477C175.626 94.7512 174.53 95.9744 173.398 97.1632C171.142 99.5323 168.59 101.712 165.477 102.826C164.723 103.095 165.053 104.311 165.809 104.036C168.993 102.875 171.631 100.728 173.958 98.2996C175.163 97.0418 176.269 95.6978 177.347 94.3299C177.851 93.6898 178.352 93.0476 178.846 92.3993L179.141 92.0095C179.762 91.1858 180.522 90.3648 180.976 89.4348C181.001 89.3825 180.945 89.308 180.889 89.3473Z" fill="black"/>
<path fill-rule="evenodd" clip-rule="evenodd" d="M144.167 48.5204C144.46 44.71 144.006 40.7162 145.467 37.0944C148.014 31.0851 155.157 29.0815 160.694 26.7937C162.912 26.1345 170.377 26.0424 172.974 25.1699C178.853 23.1953 180.257 20.8426 184.928 24.6023C185.717 25.2446 186.21 25.9426 186.57 26.8963L186.555 26.9004C186.658 27.298 186.548 27.6948 186.316 27.9978C188.341 30.0797 189.189 33.2011 188.15 35.9725C184.759 43.1844 184.918 47.0839 186.011 54.8371C187.438 62.0752 184.177 64.7192 178.777 68.6576C178.997 69.0863 179.043 69.656 178.756 70.0343C172.512 78.8587 160.738 83.072 150.651 78.593C146.556 76.7602 144.728 72.3748 143.685 68.4177C142.47 63.987 142.096 59.3182 143.086 54.8048C143.485 52.7174 144.005 50.6451 144.167 48.5204Z" fill="white"/>
<path fill-rule="evenodd" clip-rule="evenodd" d="M180.185 6.30404C179.427 6.18958 178.855 6.6625 178.582 7.32907L178.568 7.36496C178.48 7.59177 178.383 7.81239 178.278 8.02928C176.382 7.09354 173.675 7.33398 172.475 9.22902C171.618 10.5824 172.141 12.1887 172.464 13.6239L172.676 14.5696C172.266 14.8318 171.957 15.3014 171.972 15.7877L171.973 15.8251L172.06 17.1438C171.786 16.865 171.536 16.5613 171.313 16.2378C171.159 15.954 170.992 15.6751 170.814 15.4049C169.762 13.8148 167.402 15.1967 168.27 16.8997C168.436 17.2281 168.624 17.5392 168.825 17.8391C169.051 18.2816 169.237 18.7365 169.38 19.2037C168.97 19.3834 168.655 19.7825 168.621 20.3849C168.544 21.7916 169.278 22.9653 170.446 23.7027C170.79 23.9196 171.145 23.9618 171.467 23.8812C171.524 23.958 171.58 24.0349 171.634 24.113C171.169 24.4935 170.748 24.9273 170.387 25.4081C169.3 25.2445 168.207 25.1677 167.114 25.1652C165.778 24.5071 164.178 24.5207 162.743 24.7674C161.818 24.926 160.931 25.2346 160.022 25.4565C159.063 25.6895 158.089 25.6982 157.119 25.8568C155.897 26.0563 154.825 26.624 154.151 27.53C153.41 27.5523 152.631 27.8572 151.985 28.2712C150.482 29.2354 148.987 30.2133 147.487 31.1837C146.911 31.5563 146.696 32.1511 146.802 32.8145L146.809 32.8569L146.86 33.1321L146.741 33.3014C146.282 33.9533 145.783 34.6361 145.486 35.3556C144.936 36.1525 144.439 36.9879 143.999 37.8492C143.406 39.0068 142.917 40.2338 142.586 41.4931C142.503 41.8116 142.421 42.1326 142.366 42.4573C142.289 42.9159 142.408 43.2716 142.474 43.7116C142.555 44.2693 142.584 44.8345 142.671 45.3935C142.729 45.764 143.042 45.9462 143.37 45.9562C143.246 46.8993 143.158 47.8487 143.073 48.7907C142.953 50.1366 142.872 51.4864 142.801 52.8361C142.439 53.3653 141.698 53.7842 141.164 53.9292C140.423 54.1288 139.646 53.9119 138.946 53.6578C138.506 53.4979 138.145 54.0544 138.36 54.4262C139.034 55.5937 140.476 55.5888 141.568 55.0719C142.03 54.8538 142.435 54.5378 142.736 54.1263C142.718 54.5179 142.698 54.9096 142.678 55.3025L142.66 55.6583C142.438 59.8143 141.958 64.1132 142.735 68.2282C144.079 75.3559 149.945 80.7832 157.109 81.2047C160.869 81.4258 164 80.309 165.557 79.686C167.114 79.063 166.509 77.7927 165.428 78.1558C163.566 78.7814 160.146 79.7133 157.085 79.3109C149.87 78.3624 143.753 74.736 144.381 59.1173C144.47 56.9025 144.745 54.6865 144.804 52.4717C144.861 50.3064 144.84 48.14 144.935 45.976L144.966 45.2376C145.003 44.3749 145.043 43.5082 145.107 42.6445C145.185 42.3098 145.249 41.9702 145.344 41.6418C145.601 40.7482 145.938 39.8794 146.356 39.0502C146.448 39.1209 146.552 39.1717 146.664 39.1915C147.515 39.3452 148.314 39.3018 149.111 38.9449C149.483 38.78 149.811 38.5607 150.117 38.2892C150.262 38.1616 150.36 38.0376 150.436 37.9087C150.822 37.9149 151.208 37.7984 151.449 37.5196C151.725 37.2017 151.77 36.8734 151.663 36.5695L151.651 36.5392L151.678 36.5293C152.004 37.3758 152.652 38.1207 153.363 38.6239C154.487 39.422 155.893 39.6526 157.241 39.6736C158.73 39.6959 160.3 39.4654 161.769 39.2299C162.157 39.168 162.543 39.0973 162.921 39.0019C162.936 39.0168 162.951 39.0341 162.967 39.049C164.228 40.2624 166.001 40.5747 167.601 39.8819C168.525 39.4815 169.3 38.837 169.986 38.0984C169.995 38.4851 170.015 38.8717 170.048 39.2547L170.062 39.4068C170.13 40.1201 170.262 40.8767 170.798 41.3914C171.664 42.2256 172.921 41.8909 173.921 41.3481C173.919 41.3741 173.919 41.4014 173.919 41.4286C173.649 42.3507 173.378 43.2741 173.107 44.1974L173.049 44.3941C172.852 45.0498 172.635 45.7062 172.576 46.3924C172.463 47.7037 173.33 48.9989 174.78 48.5589C175.54 48.3289 176.149 47.6861 176.733 47.1712L177.101 46.851C176.149 49.983 175.488 53.2265 175.427 56.4948C175.423 56.672 175.574 56.8059 175.742 56.8121C176.134 56.8282 176.555 56.7501 176.95 56.5927C176.972 56.5914 176.994 56.5902 177.018 56.5865C177.69 56.4886 178.315 56.2444 178.866 55.8837C178.739 56.289 178.683 56.7241 178.716 57.1789C178.724 57.2892 178.896 57.3276 178.92 57.2062C179.238 55.6334 181.068 54.4448 182.646 54.746C184.339 55.0695 185.586 56.5344 185.892 58.2014C186.22 59.9924 185.593 62.0634 184.43 63.4453C183.896 64.0824 183.192 64.6141 182.356 64.7479C181.974 64.8087 181.577 64.7876 181.206 64.6785C181.049 64.6314 180.901 64.5657 180.75 64.5038C180.531 64.4145 180.275 64.4009 180.068 64.3067C179.598 64.0948 179.126 64.5298 179.364 65.0144C179.571 65.437 179.757 65.7221 180.101 65.9402C179.823 66.2823 179.57 66.7582 179.476 66.8859C178.998 67.5353 178.512 68.1488 177.968 68.7425C177.413 69.3449 176.808 69.8952 176.168 70.4045L175.9 70.6182C175.284 71.1096 174.747 71.5649 174.312 72.2698C173.97 72.8263 174.414 73.5811 175.056 73.5725C177.064 73.544 178.525 71.7691 179.565 70.2186C179.713 69.9968 179.852 69.7625 179.981 69.5221C180.028 69.5977 180.08 69.6683 180.138 69.7328L180.023 70.0426C179.683 70.9548 181.149 71.551 181.574 70.6995C181.883 70.0823 182.242 69.4948 182.641 68.9396C182.876 68.9061 183.107 68.7623 183.235 68.5764C183.559 68.1042 183.923 67.6271 184.23 67.1239C184.4 66.9615 184.575 66.8053 184.753 66.6529C184.805 66.6987 184.858 66.7446 184.909 66.7929C185.133 67.3073 185.41 67.777 185.754 68.2195L185.828 68.3139C186.486 69.1488 187.344 70.0033 188.406 70.2075C188.73 70.2695 189.042 69.8642 188.755 69.6051C188.012 68.9334 187.133 68.476 186.448 67.7262C186.11 67.3568 185.8 66.9499 185.534 66.5236L185.473 66.4248C185.429 66.3517 185.383 66.2786 185.336 66.2042C185.646 65.9923 185.955 65.7791 186.264 65.5659C187.116 66.2976 188.225 66.6323 189.167 67.2383L189.26 67.2999C190.112 67.8725 191.009 66.6058 190.326 65.9105C189.574 65.1469 188.945 64.2363 188.279 63.3876C188.592 62.8068 188.74 62.12 188.796 61.426C188.818 61.2295 188.835 61.033 188.852 60.8364C189.33 60.8438 189.811 60.679 190.218 60.3952L190.372 60.2849C190.866 60.4435 191.385 60.5203 191.881 60.5067C193.05 60.472 193.528 59.1297 192.797 58.2807C192.052 57.4132 190.746 57.2235 189.712 57.6449C189.679 57.6276 189.645 57.609 189.611 57.5904C189.661 57.3623 189.65 57.1555 189.594 56.9738L189.61 56.863C189.837 56.5121 189.987 56.1115 190.043 55.6883C190.088 55.353 190.079 55.0207 190.002 54.6897C189.976 54.5795 189.923 54.4654 189.882 54.3505C189.966 54.1371 190.016 53.9164 190.031 53.6946C190.055 53.6665 190.078 53.6376 190.1 53.6063C190.613 52.8819 190.51 52.009 190.021 51.4228C190.019 51.3855 190.016 51.3482 190.011 51.3111C190.039 51.2464 190.065 51.1811 190.089 51.115C190.566 50.631 190.917 50.0487 190.851 49.327C190.813 48.9023 190.639 48.5201 190.377 48.2344C190.423 48.0959 190.428 47.9353 190.371 47.8014C190.791 46.6802 190.738 45.3299 190.436 44.076C190.502 43.8851 190.537 43.6781 190.53 43.4588C190.495 42.528 189.694 41.6728 188.745 41.6839C188.631 41.6849 188.524 41.6999 188.421 41.7219L188.42 41.6997C188.383 41.4203 188.307 41.1622 188.195 40.9305C188.25 40.9106 188.301 40.8819 188.345 40.8439C188.954 41.1701 189.597 41.4195 190.272 41.5894C190.768 41.7143 191.276 41.1473 190.967 40.679C190.824 40.4618 190.666 40.2667 190.496 40.0885C190.738 40.0898 190.984 40.1063 191.232 40.1384C191.678 40.1967 192.176 39.8905 192.466 39.4766C192.826 39.8286 193.187 40.1793 193.548 40.5301C194.462 41.4212 195.844 40.7655 195.988 39.5906C196.26 39.5175 196.514 39.3935 196.737 39.2163C198.179 39.8459 199.731 40.1917 201.317 40.2574C202.455 40.3045 203.121 38.9709 202.589 38.029C202.231 37.3969 201.787 36.8292 201.276 36.3359C202.07 36.5801 202.889 36.7561 203.726 36.8689C204.178 36.9296 204.818 36.5528 204.999 36.1351C205.692 34.5289 205.633 32.8545 204.835 31.2916C204.804 31.2296 204.77 31.1701 204.737 31.1106C204.654 30.9036 204.564 30.6991 204.467 30.4984C205.448 29.4697 205.533 27.9402 205.004 26.6599C205.216 26.3141 205.297 25.8977 205.153 25.5209C204.743 24.4365 204.151 23.435 203.404 22.5749C203.476 22.4361 203.539 22.2886 203.592 22.1299C204.012 20.8472 203.525 19.2991 202.543 18.4055C201.925 17.8428 201.216 17.5057 200.458 17.2901C200.139 16.7224 199.728 16.2106 199.25 15.7792C199.231 15.7383 199.213 15.6974 199.192 15.6565C198.448 14.2461 197.092 13.4901 195.639 13.3153C195.582 12.7638 195.213 12.237 194.675 12.066C194.527 11.5888 194.307 11.1327 194.004 10.7188C193.527 10.0669 192.734 9.75948 191.987 10.1871C191.578 10.4213 191.186 10.6903 190.819 10.9877C190.654 10.9099 190.467 10.8596 190.256 10.8435L190.203 10.8402L188.988 10.7783C188.479 10.5515 187.971 10.3135 187.462 10.0817C187.156 9.82765 186.815 9.61571 186.443 9.45831C186.021 9.28108 185.59 9.18068 185.158 9.14722C184.806 9.03196 184.453 8.93033 184.093 8.851C183.247 8.66509 182.362 8.56098 181.485 8.56966C181.467 8.34126 181.458 8.11012 181.46 7.87625L181.462 7.75909C181.481 7.00926 180.886 6.41063 180.185 6.30404ZM181.036 66.2972C181.157 66.3232 181.279 66.3443 181.401 66.3592C181.364 66.4509 181.327 66.5426 181.292 66.6343C181.193 66.6901 181.093 66.7434 180.993 66.793C181.023 66.6244 181.04 66.4546 181.036 66.2972ZM187.368 64.405L187.45 64.5567C187.463 64.5816 187.476 64.6061 187.489 64.6302C187.315 64.6166 187.14 64.6203 186.968 64.6401L186.968 64.6217C186.991 64.6141 187.013 64.6072 187.034 64.5967C187.153 64.5392 187.264 64.4748 187.368 64.405ZM183.946 57.4826C182.856 57.5464 181.932 57.7145 180.94 58.1942L180.855 58.2361C179.979 58.6736 178.53 59.4817 178.652 60.6406C178.686 60.9702 178.924 61.3173 179.299 61.2913C180.325 61.2206 180.912 60.1795 181.607 59.5301C182.308 58.8756 183.17 58.2027 184.019 57.7527C184.139 57.6894 184.092 57.4889 183.961 57.4825L183.946 57.4826ZM188.89 42.2144C189.152 42.2231 189.064 42.4784 188.93 42.2652C188.919 42.2479 188.905 42.2305 188.89 42.2144ZM174.787 25.1699C177.262 25.2354 179.752 26.7047 181.606 28.1899C183.218 29.4819 184.611 31.0188 185.844 32.6753C186.161 33.5002 186.433 34.3424 186.664 35.1907C186.815 35.7509 186.91 36.3174 187.037 36.8825L187.076 37.0558C187.176 37.2432 187.25 37.4448 187.304 37.6532C187.079 37.8797 186.788 38.042 186.467 38.1189C186.364 38.1437 186.278 38.1974 186.21 38.2685C185.952 37.835 185.726 37.3774 185.594 36.8923L185.59 36.8699C185.093 36.052 184.554 35.2595 183.976 34.4942C182.381 32.381 180.625 30.455 178.514 28.8524C176.913 27.6378 175.123 26.686 173.221 26.0675C173.686 25.6896 174.215 25.3907 174.787 25.1699Z" fill="black"/>
<path fill-rule="evenodd" clip-rule="evenodd" d="M152.481 71.1274C153.389 71.3919 154.363 71.4155 155.289 71.1424C156.128 70.8947 156.99 70.3495 157.608 69.6281C158.156 68.9873 158.512 68.2085 158.498 67.3773C158.496 67.2823 158.462 67.2031 158.411 67.1416C158.355 67.0753 158.277 67.0299 158.193 67.0101C158.107 66.9898 158.016 66.997 157.939 67.0324C157.868 67.0644 157.808 67.1188 157.771 67.1983C157.676 67.3237 157.581 67.4473 157.486 67.5674C156.723 68.5154 155.984 69.2238 154.836 69.4779C154.213 69.6158 153.591 69.5546 153.02 69.3442C152.41 69.119 151.857 68.7231 151.425 68.2164C151.229 67.9874 150.998 67.8939 150.772 67.8924C150.516 67.8906 150.264 68.0102 150.073 68.2013C149.886 68.3891 149.76 68.6443 149.749 68.9114C149.739 69.1457 149.815 69.3905 150.017 69.6089C150.683 70.3283 151.547 70.8553 152.481 71.1274ZM152.508 59.255C151.578 59.8239 150.16 61.1504 151.161 62.5608C152.339 63.8043 154.036 62.3785 154.872 61.7336C155.647 61.2339 156.519 62.5192 155.799 63.1028C149.758 67.6012 147.306 59.4037 152.038 58.5861C152.559 58.496 152.752 59.079 152.508 59.255ZM161.214 56.7517C161.513 56.5594 161.865 56.4933 162.255 56.6717C162.56 56.8111 163.094 57.2757 163.466 57.8864C163.72 58.3043 163.901 58.7944 163.863 59.305C163.855 59.4236 163.898 59.511 163.967 59.5757C164.021 59.6267 164.099 59.6642 164.192 59.676C164.27 59.6859 164.357 59.6769 164.428 59.6546C164.564 59.6121 164.635 59.5238 164.662 59.4517C164.923 58.7562 164.811 57.98 164.519 57.2797C164.125 56.3346 163.409 55.543 162.941 55.2878C162.139 54.8509 161.193 54.8308 160.39 55.2759C159.706 55.6547 159.278 56.2663 158.853 56.8897C158.763 57.0222 158.673 57.1538 158.58 57.283C158.395 57.542 158.376 57.7988 158.448 58.0191C158.528 58.2631 158.731 58.469 158.985 58.5767C159.22 58.6763 159.493 58.6904 159.734 58.588C159.938 58.5016 160.125 58.3331 160.243 58.0471C160.442 57.5656 160.775 57.0343 161.214 56.7517ZM146.023 57.8232C146.228 57.9305 146.388 57.9629 146.616 57.8944C146.741 57.8565 146.866 57.7837 146.963 57.6859C147.059 57.589 147.129 57.4685 147.156 57.3348C147.222 57.0048 147.402 56.6959 147.658 56.4946C147.876 56.3225 148.152 56.2313 148.458 56.2827C148.789 56.3382 149.103 56.5512 149.32 56.8024C149.393 56.8865 149.449 56.982 149.506 57.0768C149.613 57.2541 149.717 57.4189 149.864 57.5491C149.92 57.5987 150.004 57.633 150.086 57.633C150.119 57.633 150.153 57.6276 150.185 57.6175C150.513 57.2857 150.577 57.0339 150.566 56.7842C150.555 56.5223 150.452 56.2572 150.286 56.0098C149.897 55.4295 149.158 54.9538 148.66 54.846C147.977 54.6984 147.299 54.8756 146.755 55.2591C146.196 55.6537 145.781 56.2664 145.652 56.9569C145.621 57.1232 145.634 57.3027 145.697 57.4584C145.759 57.6104 145.866 57.7407 146.023 57.8232ZM159.708 50.565C160.118 50.9665 160.603 51.0287 161.094 51.084C161.366 51.115 161.584 51.14 161.798 51.1886C162.387 51.3222 162.969 51.5235 163.499 51.8133C164.054 52.1164 164.659 52.4818 165.094 52.9499C165.198 53.0613 165.295 53.1782 165.393 53.2953C165.482 53.4022 165.568 53.505 165.658 53.6042C165.762 53.7181 165.86 53.8374 165.958 53.9565C166.019 54.0569 166.031 54.0817 166.043 54.1074C166.062 54.146 166.083 54.1893 166.107 54.2357C166.141 54.2992 166.18 54.3688 166.221 54.4319C166.289 54.5472 166.326 54.5789 166.358 54.5931C166.41 54.6166 166.46 54.6282 166.508 54.6219C166.553 54.6161 166.596 54.5942 166.638 54.5584C166.849 54.3796 166.911 54.0862 166.904 53.7748C166.895 53.3023 166.721 52.7791 166.562 52.4575C166.19 51.7101 165.675 50.9332 165.055 50.3755C164.349 49.7388 163.575 49.2568 162.687 48.9247C162.135 48.7182 161.496 48.5287 160.894 48.5526C160.461 48.5699 160.048 48.6993 159.707 49.0225C159.497 49.2209 159.397 49.503 159.397 49.785C159.397 50.0726 159.501 50.362 159.708 50.565ZM145.19 54.2417C145.216 54.2846 145.252 54.3142 145.292 54.332C145.334 54.3506 145.381 54.356 145.426 54.3484C145.471 54.3408 145.514 54.3203 145.547 54.289C145.58 54.2591 145.605 54.2193 145.616 54.1706C145.888 52.969 146.416 52.0749 147.543 51.4984C148.098 51.2148 148.736 51.0346 149.34 50.8909C149.515 50.8491 149.7 50.8221 149.887 50.7947C150.472 50.7087 151.062 50.6103 151.443 50.1347C151.673 49.8482 151.769 49.4818 151.715 49.1466C151.663 48.8311 151.48 48.5418 151.147 48.3684C150.317 47.937 149.286 48.3603 148.448 48.721C148.386 48.7477 148.325 48.774 148.265 48.7993C147.446 49.1472 146.699 49.6063 146.084 50.2629C145.597 50.7838 145.145 51.5539 144.963 52.346C144.812 53.0051 144.848 53.6779 145.19 54.2417Z" fill="black"/>
<path fill-rule="evenodd" clip-rule="evenodd" d="M24.0429 163.06C31.5891 163.273 38.7175 163.507 46.2492 163.06C58.3015 162.31 93.6711 163.662 101.446 163.06C102.032 163.015 104.05 163.662 104.092 163.06C104.434 158.87 104.655 116.478 103.64 113.561C102.625 110.644 97.6128 96.6226 91.2266 90.0842C89.4459 88.3178 86.7362 87.6336 85.2393 85.5923C83.9487 83.3664 84.0489 82.06 82.7744 80.8889C82.2213 80.3807 80.9168 80.1747 79.9476 79.4693C78.973 78.4952 79.8957 76.3511 79.4957 74.9947C78.6712 71.6079 75.6337 69.4351 72.3138 68.9231C67.6995 67.8127 62.8281 68.8626 60.6178 72.5077C59.7951 73.8646 60.2329 75.5138 59.2211 77.688C59.2933 79.3311 57.3859 79.7281 56.2458 80.3791L53.9817 82.6803C47.0064 86.6273 38.8007 88.7587 32.6889 94.0616C27.4926 99.3629 22.3242 105.49 20.0186 112.663C19.5413 114.617 19.3855 116.637 19.1877 118.634C18.623 124.47 17.0506 130.135 15.6975 135.819C14.1545 142.982 12.7162 150.585 14.7958 157.815C15.3953 159.345 22.678 162.989 24.0429 163.06Z" fill="white"/>
<path fill-rule="evenodd" clip-rule="evenodd" d="M60.2178 73.0913C60.2782 72.8928 60.5383 72.9486 60.558 73.1371C60.754 75.0061 60.5075 76.9594 60.2709 78.816C60.1575 79.7121 60.0921 80.6442 59.9195 81.5277C59.8974 81.622 59.8764 81.7174 59.8567 81.8117C59.9134 81.9132 60.0811 82.0272 60.1611 82.1053L60.509 82.4455L61.2062 83.1242C62.5705 84.4528 63.9347 85.7826 65.2989 87.1113L67.3016 89.0634C67.9882 89.7326 68.7683 90.3734 69.3708 91.1196C69.6975 91.5247 69.7713 92.0217 69.4496 92.4555C69.2907 92.6699 69.0049 92.8261 68.7151 92.8583C68.8285 93.017 68.916 93.1967 68.9715 93.3963C69.0849 93.8029 68.6758 94.3022 68.2408 94.1324C67.7466 93.9416 67.3386 93.5995 66.8357 93.4359C66.328 93.2698 65.776 93.2377 65.2496 93.3268C65.0081 93.3677 64.7715 93.4286 64.541 93.5054C67.0072 94.6469 69.6752 95.3025 72.3963 95.3966C72.9509 95.4153 73.5043 95.4078 74.0551 95.3707C74.982 95.3099 75.9025 95.1687 76.807 94.9406C77.5183 94.7609 78.222 94.5352 78.9047 94.2626C79.2399 94.1287 79.5713 93.9813 79.8918 93.814L79.9199 93.7973C79.9924 93.7518 81.3314 92.9881 81.3547 92.8733C81.3781 92.7586 81.3781 92.7186 81.3345 92.6187C81.2909 92.5188 81.1701 92.4499 81.1701 92.4499C80.7563 92.272 80.3277 92.1065 79.8758 92.1035C78.8356 92.0973 77.7005 92.8708 76.8404 93.3976C75.8952 93.9764 75.0262 94.653 74.1167 95.2802C74.0958 95.295 74.0725 95.3013 74.0502 95.3013C73.9542 95.3013 73.8653 95.1822 73.9269 95.0892C74.5788 94.124 75.4586 93.3204 76.379 92.6187L76.7498 92.3391C77.5927 91.7069 78.5786 91.0068 79.6035 90.8542C80.8592 90.6683 82.1705 91.4554 83.2908 91.9164L85.2748 92.7331C85.6285 92.8782 86.0132 93.0021 86.3692 93.1669L85.5378 90.5507C85.1223 89.2424 84.708 87.9338 84.2977 86.6243L84.218 86.3677C83.8093 85.0384 83.4341 83.6556 82.7533 82.4413C82.5907 82.15 82.4046 81.8761 82.2209 81.5996C82.0299 81.3134 81.9585 80.9974 81.7183 80.7419C81.2426 80.235 80.5609 79.9376 79.9102 79.7431C79.7512 79.696 79.7982 79.4853 79.9473 79.4692C80.6151 79.3984 81.2518 79.5551 81.8552 79.8383L82.106 79.9586C82.6766 80.2301 83.233 80.4827 83.6567 80.97C84.6228 82.083 85.1245 83.4844 85.5855 84.8673L85.7088 85.2386C85.8812 85.1816 87.0532 85.541 87.1998 85.6264C91.5934 87.4943 94.9776 90.972 97.4522 95.0471C100.164 99.5127 101.64 104.615 102.859 109.665C103.235 111.223 103.594 112.786 103.94 114.353C102.4 114.949 100.764 115.26 99.3228 116.1C98.7737 116.419 99.2697 117.276 99.8203 116.956C101.17 116.17 102.708 115.879 104.153 115.327C104.936 118.954 105.633 122.601 106.217 126.263C108.01 137.502 109.143 148.924 109.071 160.316C109.07 160.568 108.996 160.849 108.859 161.091C108.939 161.051 109.002 161.004 109.038 160.947C109.493 160.23 110.633 160.895 110.175 161.617L110.109 161.721C109.765 162.253 109.445 162.66 108.842 162.96C108.234 163.263 107.576 163.313 106.906 163.331C104.627 163.391 102.347 163.43 100.066 163.459C99.7531 161.005 99.6259 158.528 99.195 156.088C99.0842 155.461 98.1339 155.727 98.2443 156.352C98.6605 158.708 98.7937 161.099 99.0842 163.471C94.2076 163.523 89.3283 163.524 84.4554 163.538C77.8516 163.557 71.2487 163.543 64.6452 163.54L61.8151 163.539C54.1866 163.539 46.5579 163.514 38.9295 163.463L37.1153 163.45C36.3936 159.172 35.9024 154.857 35.8933 150.509C35.8919 149.871 34.906 149.87 34.9074 150.509C34.9165 154.852 35.4023 159.167 36.1173 163.445C34.3111 163.437 32.5058 163.443 30.6995 163.508L29.7801 163.541C27.9406 163.604 26.0975 163.643 24.2614 163.496C22.2231 163.331 20.1614 162.954 18.3337 161.988C17.5106 161.553 16.7859 160.996 16.1665 160.341C16.7961 159.973 17.4347 159.619 18.0446 159.218C18.5734 158.87 18.0801 158.011 17.547 158.362C16.8897 158.795 16.1989 159.171 15.5222 159.571C15.0322 158.914 14.63 158.184 14.3246 157.396C13.8428 156.153 13.6567 154.816 13.4952 153.5C13.3043 151.949 13.2253 150.386 13.2253 148.825C13.2253 145.54 13.5692 142.266 14.0487 139.021C14.5073 135.913 15.1134 132.829 15.7541 129.755L15.8417 129.336C16.4739 126.315 17.0766 123.284 17.8012 120.284C18.4713 117.509 19.2456 114.747 20.1684 112.039C20.9898 112.55 21.8494 112.997 22.658 113.529C23.1905 113.879 23.685 113.021 23.1556 112.673C22.2929 112.105 21.3728 111.633 20.5023 111.078C21.5341 108.179 22.7453 105.346 24.1975 102.634C27.1058 97.2013 31.0249 92.3415 36.0445 88.7548C38.5572 86.96 41.3141 85.4915 44.2091 84.423C47.1607 83.3324 50.2194 82.7349 53.3472 82.4896C53.4365 82.4825 53.4866 82.5656 53.483 82.6425L53.4816 82.6568L53.6049 82.6768C53.6505 82.3657 53.7441 82.0644 53.9228 81.7881C54.3295 81.1585 55.1009 80.7545 55.7171 80.3678L55.8632 80.2764C56.5963 79.8194 57.37 79.3692 58.2227 79.2089C58.2522 79.2039 58.2706 79.2348 58.2509 79.2585C57.6886 79.9069 56.9696 80.4023 56.3106 80.9506L56.1591 81.0777C55.613 81.5296 54.8513 82.0426 54.831 82.7981C54.8077 83.6881 54.9887 84.6138 55.0542 85.5014C55.1195 86.3862 55.165 87.2699 55.1884 88.1573C55.2735 91.3365 55.1712 94.5168 54.8914 97.6834L56.1286 96.8504C58.0541 95.5541 59.9859 94.2615 61.9579 93.0479C63.151 92.3131 64.4918 91.6846 65.9213 91.7132C66.3218 91.7206 66.7741 91.7789 67.208 91.9029C66.741 91.4579 66.2936 90.9845 65.8364 90.537C65.0833 89.7995 64.3303 89.0622 63.5774 88.326L61.4063 86.1991L59.2343 84.0722C58.5616 83.4116 57.7727 82.8032 57.8442 81.7621C57.9022 80.9317 58.3224 80.105 58.6095 79.3044C58.6502 79.1891 58.6871 79.0751 58.7217 78.9623C59.301 77.0264 59.6299 75.0196 60.2178 73.0913ZM88.2783 156.155C87.8292 155.703 87.1319 156.404 87.5812 156.856L87.8188 157.094C88.2156 157.492 88.609 157.903 88.8836 158.395L88.9239 158.469C89.2198 159.034 90.0712 158.533 89.7751 157.969C89.4092 157.271 88.8272 156.707 88.2783 156.155ZM69.0365 156.027C67.6068 155.753 66.2289 155.753 64.7992 156.027C64.1767 156.147 64.4403 157.103 65.0613 156.984C66.3117 156.744 67.5239 156.744 68.7744 156.984C69.3944 157.103 69.66 156.147 69.0365 156.027ZM49.7287 146.033C49.1134 145.876 48.851 146.832 49.4667 146.989L49.7698 147.066C50.8002 147.322 51.7816 147.512 52.852 147.275C53.4632 147.139 53.216 146.206 52.6142 146.314L52.5899 146.319C51.5994 146.539 50.687 146.277 49.7287 146.033ZM84.0192 139.593C83.564 139.148 82.8661 139.848 83.322 140.294C83.891 140.85 84.5616 141.273 85.3742 141.296C85.9995 141.313 86.0083 140.351 85.4022 140.306L85.3742 140.304C84.8296 140.289 84.3957 139.961 84.0192 139.593ZM25.9953 136.945C26.5629 136.659 26.0641 135.804 25.4977 136.089L22.0904 137.802C21.5228 138.087 22.0215 138.943 22.5879 138.658L25.9953 136.945ZM93.3248 137.163C92.6901 137.145 92.6906 138.137 93.3248 138.155C93.9212 138.171 94.5323 138.399 95.0636 138.658C95.6319 138.936 96.1324 138.081 95.5612 137.802C94.8666 137.463 94.1042 137.185 93.3248 137.163ZM61.488 132.376C62.0098 132.019 61.5171 131.16 60.9903 131.52C60.2716 132.011 59.6204 132.591 58.9132 133.097L58.7188 133.233C58.197 133.59 58.6897 134.449 59.2164 134.089C60.0004 133.553 60.7041 132.911 61.488 132.376ZM98.1518 125.17C97.5174 125.169 97.5164 126.161 98.1518 126.161L98.2721 126.161C98.7957 126.158 99.3477 126.143 99.8347 126.354L99.8906 126.379C100.461 126.649 100.962 125.795 100.388 125.523C99.6743 125.185 98.9278 125.17 98.1518 125.17ZM43.399 124.461L43.4818 124.43C44.0745 124.216 43.8189 123.257 43.2196 123.474C42.3165 123.8 41.6139 124.417 40.8305 124.952C40.3085 125.308 40.8012 126.168 41.328 125.808C42.0031 125.347 42.6311 124.763 43.399 124.461ZM80.3791 121.882L80.512 121.81C81.0765 121.518 80.5782 120.662 80.0145 120.954C79.567 121.186 79.1666 121.494 78.7276 121.739L78.5946 121.811C78.0303 122.103 78.5285 122.959 79.0923 122.667C79.5398 122.435 79.9402 122.127 80.3791 121.882ZM65.3807 112.278L65.2792 112.179C64.8254 111.733 64.1278 112.433 64.5821 112.88C65.7166 113.997 67.0579 114.845 68.411 115.665L68.6571 115.814C69.2024 116.143 69.6987 115.286 69.1547 114.957L68.7935 114.739C67.5905 114.009 66.4015 113.256 65.3807 112.278ZM38.0977 111.352C38.48 110.853 37.6486 110.364 37.26 110.835L37.2463 110.852C36.8484 111.371 36.3762 111.842 35.8827 112.271L35.7899 112.351C35.4961 112.602 34.9614 113.141 34.5486 113.176C33.9211 113.23 33.9154 114.222 34.5486 114.168C35.1873 114.113 35.7368 113.661 36.2193 113.274C36.9215 112.71 37.5496 112.068 38.0977 111.352ZM90.5499 107.74C91.0081 107.307 90.3314 106.619 89.8691 107.024L89.8529 107.039C88.9968 107.848 87.7652 108.065 86.6631 108.339C86.0475 108.493 86.3083 109.449 86.9252 109.296L87.4273 109.171C88.5536 108.888 89.6837 108.559 90.5499 107.74ZM71.0241 101.486C70.4089 101.329 70.1464 102.285 70.7621 102.442C71.8078 102.709 72.7983 103.055 73.7676 103.535C74.335 103.815 74.8351 102.96 74.2652 102.678C73.2224 102.162 72.1501 101.774 71.0241 101.486ZM81.0959 80.5847C81.0811 80.54 81.1281 80.4892 81.1735 80.5052C82.28 80.9201 81.6918 82.3774 81.348 83.2498L81.2857 83.4093C80.7471 84.8073 79.9943 86.1682 79.1735 87.42C78.3145 88.73 77.3606 89.9843 76.3279 91.1617C75.8799 91.6729 75.4152 92.1694 74.9349 92.6511L74.754 92.8311C74.2686 93.3108 73.6425 94.1536 72.8894 94.0607C72.0785 93.9626 71.6262 93.0914 72.2178 92.4296C72.6357 91.9611 73.2149 91.5879 73.6818 91.1617C74.1453 90.7402 74.5939 90.3053 75.0313 89.8579C75.9261 88.9395 76.774 87.969 77.5492 86.9465C78.2989 85.9577 79.0164 84.9415 79.6687 83.8851L79.7983 83.6732C80.2949 82.8515 81.4411 81.6431 81.0959 80.5847ZM41.8959 90.9706C41.3707 90.6094 40.877 91.4683 41.3983 91.8267C42.3569 92.4855 43.2002 93.2837 44.2377 93.8256C44.7933 94.1158 45.2873 93.2841 44.7551 92.9803L44.7354 92.9695C43.6986 92.4278 42.854 91.629 41.8959 90.9706Z" fill="black"/>
<path fill-rule="evenodd" clip-rule="evenodd" d="M88.133 39.0782C84.4291 33.9513 77.6092 32.4769 71.695 33.7239C60.1327 35.8435 49.0862 44.7147 47.0432 56.7795C43.8559 64.0785 45.8912 75.575 55.1608 76.4339C56.4805 76.5088 57.7877 76.2033 59.1097 76.3683C67.1784 77.6644 76.713 83.213 83.8554 76.6696C84.2134 76.9275 84.6849 77.0522 85.0863 76.8961C88.1264 75.7146 88.2692 72.2967 88.5284 69.4871C88.8632 65.8568 89.1772 62.2245 89.4701 58.5907C89.5747 52.324 92.0446 44.4931 88.133 39.0782Z" fill="white"/>
<path fill-rule="evenodd" clip-rule="evenodd" d="M65.7169 26.0141C70.5848 25.7538 79.5543 27.9961 83.8012 30.625C90.7207 34.9083 91.257 43.4524 90.9748 44.9298C90.8676 45.4936 90.525 46.0154 89.9889 45.842C90.4436 49.7237 90.4079 51.9423 90.4843 55.8464L90.5368 58.4529C90.5709 60.1907 90.6002 61.9285 90.6076 63.6669C90.7826 63.6014 90.9551 63.6818 91.0192 63.8505C91.0352 63.8914 90.9797 63.9137 90.9526 63.8901C90.6445 63.6198 90.8639 64.2358 90.9699 64.3611C91.1165 64.5334 91.3605 64.6957 91.5318 64.8432L91.9971 65.2483L92.4623 65.6526C93.0633 66.174 93.6446 66.6966 94.2053 67.2583L94.3577 67.4125C95.3794 68.4561 96.6598 69.4661 97.2957 70.8159C97.9033 72.1048 97.716 73.566 96.7067 74.5935C96.3394 74.9665 95.9105 75.2517 95.4447 75.4674C96.2741 76.8406 96.3949 78.6563 95.5297 80.0691C94.6634 81.4871 92.9972 82.2295 91.3926 82.1155C91.3433 82.3175 91.2669 82.5146 91.1658 82.7016C90.5295 83.8775 89.2639 84.0302 88.0638 83.9673L88.0171 83.9647C85.3156 83.8084 82.7165 83.1281 80.3503 81.8057C79.5296 81.8614 78.7975 81.1834 78.6373 80.4397C78.206 80.4237 77.7722 80.3877 77.3297 80.3368C76.0172 80.1845 74.6715 79.9007 73.5142 79.2302C73.3368 79.1273 73.4193 78.8559 73.6165 78.8508C75.0264 78.8186 76.4375 78.9166 77.8449 78.7629C79.1364 78.6228 80.513 78.2647 81.7171 77.7776C83.8811 76.9001 85.7371 75.4116 86.7612 73.3491C88.0873 70.6794 87.9665 67.4732 88.1107 64.573C88.2704 61.3628 88.4671 58.1555 88.6773 54.9485L88.7793 53.4112C88.9835 50.4149 89.1525 48.812 89.6697 45.7019C88.1107 45.842 81.6346 43.4979 79.6208 39.6635C75.7985 47.8205 56.4331 44.4822 55.5743 57.04C55.567 57.1465 55.3993 57.1168 55.3931 57.0151L55.3771 56.7289C55.3694 56.5874 55.3624 56.4483 55.3576 56.3102L55.3537 56.1724L55.0493 56.1761C55.0493 56.2144 54.995 56.2282 54.9815 56.1873C54.6943 55.3679 53.3264 55.6319 52.7311 55.8266C52.195 56.0025 51.6898 56.2727 51.2362 56.6062C50.3255 57.2755 49.6193 58.1765 49.3852 59.303C48.9403 61.4423 50.2947 63.6212 52.0928 64.6536C53.2266 65.3043 54.4688 65.7244 55.5558 66.4619C56.5158 67.1126 57.4105 67.8748 58.1857 68.7411C61.2568 72.173 63.0635 77.3785 61.6105 81.9085C61.4996 82.2543 61.2063 82.6496 60.8181 82.7055C60.176 82.7984 59.534 82.7042 59.1741 82.0895C59.0336 81.849 58.9671 81.5751 58.9818 81.3049C58.7329 82.165 57.9257 83.0153 57.1813 83.3351C56.1671 83.7714 55.0246 83.6411 54.1299 83.0784L54.0169 83.1625C52.5618 84.2396 50.9364 85.2213 49.0722 85.0231C47.7215 84.8794 46.3954 84.1878 45.6486 83.0971C44.6553 83.6586 43.5942 84.1059 42.4998 84.4108L42.3833 84.4429C40.8777 84.8552 38.9571 85.2332 37.5517 84.3959C36.2023 83.5915 35.7537 81.8353 36.0704 80.3691C36.1086 80.1944 36.1567 80.0246 36.2158 79.8598C35.2003 79.9142 34.1861 79.8164 33.2223 79.5165C32.2377 79.2102 31.2986 78.6215 30.8266 77.6673C30.2942 76.5877 30.4359 75.3608 30.8327 74.2614C31.4674 72.4976 32.4878 70.9286 33.7584 69.5616C34.9803 68.246 36.4542 67.1298 37.9859 66.1994L38.2442 66.044C39.623 65.2169 41.2859 64.2477 42.9151 64.3115C42.9102 64.2905 42.9065 64.2705 42.904 64.2496C42.6575 62.4239 42.6859 60.5623 42.628 58.7218C42.575 57.0288 42.5146 55.3358 42.4752 53.6415C42.4111 50.7611 42.432 47.8684 42.8054 45.0079C43.137 42.4696 43.7334 39.9944 44.8216 37.6705C45.9641 35.229 47.6845 33.1456 49.8091 31.5071C54.2679 28.0678 60.1576 26.3115 65.7169 26.0141ZM50.5721 59.846C51.0577 58.9252 52.1632 58.6351 53.1331 58.8012C54.4924 59.0342 55.4167 60.2291 56.2104 61.2566C57.0434 62.3335 55.3058 63.3486 54.8584 62.3051L54.7524 62.0586C54.3934 61.2311 53.9693 60.3585 53.2366 59.8188C52.4577 59.2462 51.3584 59.1619 50.6707 59.9229C50.6214 59.9787 50.5389 59.9068 50.5721 59.846Z" fill="black"/>
<path fill-rule="evenodd" clip-rule="evenodd" d="M81.3192 66.8115C81.742 66.0611 83.0037 66.1831 83.1966 67.0582C83.5879 68.8323 81.4843 70.4706 79.8866 70.5115C78.2989 70.552 76.5175 69.193 76.7474 67.4764C76.8042 67.0518 77.3681 67.1034 77.5604 67.3696L77.635 67.4717C78.1572 68.1772 78.8462 68.9074 79.8153 68.7354C80.2169 68.6643 80.5817 68.4119 80.8245 68.0871C81.1173 67.695 81.0851 67.2269 81.3192 66.8115ZM71.2238 53.8324C71.4389 53.7728 71.6561 53.7959 71.8467 53.8774C72.2724 53.9559 72.6279 54.3128 72.7529 54.7203C72.7628 54.7556 72.7738 54.7905 72.7859 54.8249L72.8049 54.8764L72.7539 54.7458C72.7774 54.8744 72.8816 55.0096 72.919 55.1388C72.9651 55.2975 72.9763 55.4779 72.9608 55.6526C73.0961 55.654 73.2314 55.6586 73.3665 55.6703L73.497 55.6821C74.227 55.7503 75.0284 55.8755 75.4611 56.5098C75.7041 56.8662 75.476 57.508 75.0295 57.5767C74.3422 57.6824 73.7502 57.2999 73.0652 57.2233C72.4177 57.1508 71.7401 57.1923 71.101 57.3099C69.7815 57.5526 68.569 58.0904 67.2831 58.4279L67.1081 58.4726L67.1083 58.4718C66.8879 58.5253 66.6378 58.2172 66.8558 58.037C67.8859 57.1859 69.2048 56.4962 70.5042 56.0761C70.3149 55.7733 70.2563 55.3745 70.3857 55.0494C70.4058 54.982 70.4306 54.9165 70.4569 54.8512L70.5116 54.7169C70.5169 54.6535 70.5289 54.591 70.5464 54.5296L70.5493 54.5109L70.5509 54.512C70.6476 54.1958 70.9003 53.9222 71.2238 53.8324ZM84.3663 53.8814C84.648 53.5979 85.0439 53.6398 85.338 53.8629L85.377 53.8937C85.6541 54.0175 85.8835 54.288 86.0341 54.5388C86.1905 54.7992 86.2944 55.0644 86.2984 55.3511C86.9804 55.3533 87.6337 55.5591 88.1345 56.1128C88.2962 56.2915 88.4066 56.5672 88.3176 56.8095L88.2646 56.9536C88.0965 57.4113 87.3405 57.6747 87.0836 57.1365L87.0718 57.1103C86.7988 56.4712 85.7509 56.5383 85.194 56.6036C84.8058 56.6494 84.4224 56.7464 84.0475 56.8551C83.9154 56.8934 83.7845 56.935 83.6537 56.9774L83.523 57.0201C83.4532 57.0427 83.0899 57.2412 83.3159 57.1942C83.3767 57.1815 83.4224 57.2705 83.3604 57.3004C83.091 57.4299 82.8036 57.172 82.8216 56.881C82.8528 56.3758 83.6504 56.0989 84.0342 55.9247L84.0572 55.9141C84.2043 55.8457 84.3585 55.7802 84.5176 55.7193C84.4282 55.5855 84.3542 55.4367 84.2927 55.2771C84.2345 55.1264 84.1957 54.9799 84.1744 54.8196C84.1535 54.7413 84.1535 54.663 84.1744 54.5845L84.1776 54.5621C84.1668 54.5103 84.1616 54.4567 84.1623 54.4028L84.1601 54.3819H84.1623C84.1698 54.1931 84.2444 54.004 84.3663 53.8814ZM79.865 59.261C80.9474 59.5974 82.7332 60.5136 82.1691 61.9279C81.3815 63.2268 79.2927 62.2722 78.2805 61.8526C77.3711 61.5497 76.8977 62.8313 77.777 63.2176C85.043 66.1085 85.0163 58.4789 80.1285 58.591C79.5903 58.6032 79.5734 59.1492 79.865 59.261ZM70.2517 49.3127L70.4363 49.2585C71.3957 48.979 72.3751 48.4964 73.2269 49.2494C73.5614 49.5451 73.6303 50.1596 73.391 50.5285C72.8458 51.3689 72.0372 51.2405 71.1566 51.3122C70.4862 51.3667 69.8258 51.5647 69.2 51.8123C68.6885 52.0146 68.2142 52.2996 67.7663 52.6174C67.3264 52.9298 67.0258 53.4183 66.5745 53.6995C66.4091 53.8026 66.2181 53.6965 66.1587 53.5293C65.9482 52.9363 66.3038 52.1975 66.6048 51.6922C66.9722 51.0757 67.5302 50.5715 68.1303 50.19C68.7873 49.7722 69.5139 49.5309 70.2517 49.3127ZM84.2313 48.6745C85.8531 48.674 87.4135 49.5811 88.3206 50.9109C88.6288 51.3626 88.4029 52.0319 87.9605 52.2921C87.4641 52.584 86.9334 52.3738 86.6063 51.9554L86.5869 51.93C86.0668 51.2334 85.3962 50.6847 84.6013 50.3275C84.2135 50.1531 83.7846 50.0117 83.3651 49.9399L83.2295 49.9166C83.0395 49.8845 82.8191 49.854 82.6472 49.8839C82.5552 49.8961 82.4706 49.9267 82.3927 49.9733C82.4302 50.0556 82.3335 50.1547 82.2441 50.1054C81.8411 49.8828 81.8905 49.4857 82.2234 49.1771C82.6943 48.7404 83.6232 48.6746 84.2313 48.6745Z" fill="black"/>
</g>
</svg>
